G04*
G04 #@! TF.GenerationSoftware,Altium Limited,Altium Designer,20.2.6 (244)*
G04*
G04 Layer_Physical_Order=2*
G04 Layer_Color=16711680*
%FSLAX25Y25*%
%MOIN*%
G70*
G04*
G04 #@! TF.SameCoordinates,3B791BB4-AEC8-405A-9348-557AA33B983F*
G04*
G04*
G04 #@! TF.FilePolarity,Positive*
G04*
G01*
G75*
%ADD13C,0.01000*%
%ADD74C,0.05472*%
%ADD75R,0.05472X0.05472*%
%ADD77C,0.06181*%
%ADD78R,0.06181X0.06181*%
%ADD82C,0.10000*%
%ADD85R,0.05906X0.05906*%
%ADD86C,0.05906*%
%ADD87C,0.06299*%
%ADD88R,0.05906X0.05906*%
%ADD89R,0.08071X0.08071*%
%ADD90C,0.08071*%
%ADD91C,0.07087*%
%ADD92R,0.07087X0.07087*%
%ADD93C,0.06102*%
%ADD94R,0.06102X0.06102*%
%ADD95R,0.06299X0.06299*%
%ADD96C,0.05000*%
G36*
X356480Y1020D02*
X31000D01*
Y275980D01*
X356480D01*
Y1020D01*
D02*
G37*
%LPC*%
G36*
X58000Y267513D02*
Y263000D01*
X62513D01*
X62406Y263814D01*
X61898Y265039D01*
X61091Y266091D01*
X60039Y266898D01*
X58815Y267406D01*
X58000Y267513D01*
D02*
G37*
G36*
X57000D02*
X56186Y267406D01*
X54961Y266898D01*
X53909Y266091D01*
X53102Y265039D01*
X52594Y263814D01*
X52487Y263000D01*
X57000D01*
Y267513D01*
D02*
G37*
G36*
X38000D02*
Y263000D01*
X42513D01*
X42406Y263814D01*
X41898Y265039D01*
X41091Y266091D01*
X40039Y266898D01*
X38814Y267406D01*
X38000Y267513D01*
D02*
G37*
G36*
X37000D02*
X36186Y267406D01*
X34961Y266898D01*
X33909Y266091D01*
X33102Y265039D01*
X32594Y263814D01*
X32487Y263000D01*
X37000D01*
Y267513D01*
D02*
G37*
G36*
X154118Y261305D02*
Y258341D01*
X157082D01*
X157028Y258754D01*
X156675Y259606D01*
X156114Y260337D01*
X155383Y260898D01*
X154532Y261250D01*
X154118Y261305D01*
D02*
G37*
G36*
X153118D02*
X152704Y261250D01*
X151853Y260898D01*
X151122Y260337D01*
X150561Y259606D01*
X150208Y258754D01*
X150153Y258341D01*
X153118D01*
Y261305D01*
D02*
G37*
G36*
X62513Y262000D02*
X58000D01*
Y257487D01*
X58815Y257594D01*
X60039Y258102D01*
X61091Y258909D01*
X61898Y259961D01*
X62406Y261186D01*
X62513Y262000D01*
D02*
G37*
G36*
X57000D02*
X52487D01*
X52594Y261186D01*
X53102Y259961D01*
X53909Y258909D01*
X54961Y258102D01*
X56186Y257594D01*
X57000Y257487D01*
Y262000D01*
D02*
G37*
G36*
X42513D02*
X38000D01*
Y257487D01*
X38814Y257594D01*
X40039Y258102D01*
X41091Y258909D01*
X41898Y259961D01*
X42406Y261186D01*
X42513Y262000D01*
D02*
G37*
G36*
X37000D02*
X32487D01*
X32594Y261186D01*
X33102Y259961D01*
X33909Y258909D01*
X34961Y258102D01*
X36186Y257594D01*
X37000Y257487D01*
Y262000D01*
D02*
G37*
G36*
X157082Y257341D02*
X154118D01*
Y254376D01*
X154532Y254431D01*
X155383Y254783D01*
X156114Y255344D01*
X156675Y256075D01*
X157028Y256927D01*
X157082Y257341D01*
D02*
G37*
G36*
X153118D02*
X150153D01*
X150208Y256927D01*
X150561Y256075D01*
X151122Y255344D01*
X151853Y254783D01*
X152704Y254431D01*
X153118Y254376D01*
Y257341D01*
D02*
G37*
G36*
X52035Y257035D02*
X42965D01*
Y247965D01*
X52035D01*
Y257035D01*
D02*
G37*
G36*
X58000Y247513D02*
Y243000D01*
X62513D01*
X62406Y243814D01*
X61898Y245039D01*
X61091Y246091D01*
X60039Y246898D01*
X58815Y247406D01*
X58000Y247513D01*
D02*
G37*
G36*
X57000D02*
X56186Y247406D01*
X54961Y246898D01*
X53909Y246091D01*
X53102Y245039D01*
X52594Y243814D01*
X52487Y243000D01*
X57000D01*
Y247513D01*
D02*
G37*
G36*
X38000D02*
Y243000D01*
X42513D01*
X42406Y243814D01*
X41898Y245039D01*
X41091Y246091D01*
X40039Y246898D01*
X38814Y247406D01*
X38000Y247513D01*
D02*
G37*
G36*
X37000D02*
X36186Y247406D01*
X34961Y246898D01*
X33909Y246091D01*
X33102Y245039D01*
X32594Y243814D01*
X32487Y243000D01*
X37000D01*
Y247513D01*
D02*
G37*
G36*
X62513Y242000D02*
X58000D01*
Y237487D01*
X58815Y237594D01*
X60039Y238102D01*
X61091Y238909D01*
X61898Y239961D01*
X62406Y241185D01*
X62513Y242000D01*
D02*
G37*
G36*
X57000D02*
X52487D01*
X52594Y241185D01*
X53102Y239961D01*
X53909Y238909D01*
X54961Y238102D01*
X56186Y237594D01*
X57000Y237487D01*
Y242000D01*
D02*
G37*
G36*
X42513D02*
X38000D01*
Y237487D01*
X38814Y237594D01*
X40039Y238102D01*
X41091Y238909D01*
X41898Y239961D01*
X42406Y241185D01*
X42513Y242000D01*
D02*
G37*
G36*
X37000D02*
X32487D01*
X32594Y241185D01*
X33102Y239961D01*
X33909Y238909D01*
X34961Y238102D01*
X36186Y237594D01*
X37000Y237487D01*
Y242000D01*
D02*
G37*
G36*
X278764Y254650D02*
X271465D01*
Y248792D01*
X256779Y234107D01*
X256558Y233776D01*
X256480Y233386D01*
Y202422D01*
X226078Y172020D01*
X190500D01*
X190110Y171942D01*
X189779Y171721D01*
X174078Y156020D01*
X174000D01*
X173610Y155942D01*
X173279Y155721D01*
X165279Y147721D01*
X165058Y147390D01*
X164980Y147000D01*
Y134544D01*
X161607Y131170D01*
X161386Y130839D01*
X161308Y130449D01*
Y122422D01*
X160846Y122230D01*
X151892Y131184D01*
X151562Y131405D01*
X151171Y131483D01*
X149959D01*
X147218Y134223D01*
X147423Y134717D01*
X147526Y135500D01*
X147423Y136283D01*
X147120Y137013D01*
X146640Y137640D01*
X146013Y138120D01*
X145283Y138423D01*
X144845Y138480D01*
X144878Y138980D01*
X148500D01*
X148890Y139058D01*
X149221Y139279D01*
X152610Y142668D01*
X152987Y142379D01*
X153717Y142077D01*
X154500Y141974D01*
X155283Y142077D01*
X156013Y142379D01*
X156640Y142860D01*
X157121Y143487D01*
X157423Y144217D01*
X157526Y145000D01*
X157423Y145783D01*
X157121Y146513D01*
X156640Y147140D01*
X156013Y147620D01*
X155283Y147923D01*
X154500Y148026D01*
X153717Y147923D01*
X152987Y147620D01*
X152438Y147199D01*
X152115Y147252D01*
X151894Y147353D01*
X151620Y148013D01*
X151140Y148640D01*
X150513Y149120D01*
X149783Y149423D01*
X149000Y149526D01*
X148217Y149423D01*
X148077Y149365D01*
X144221Y153221D01*
X143890Y153442D01*
X143500Y153520D01*
X49422D01*
X47565Y155377D01*
X47864Y156099D01*
X47982Y157000D01*
X47864Y157901D01*
X47516Y158741D01*
X46962Y159462D01*
X46241Y160016D01*
X45401Y160364D01*
X44500Y160483D01*
X43599Y160364D01*
X42759Y160016D01*
X42037Y159462D01*
X41484Y158741D01*
X41136Y157901D01*
X41017Y157000D01*
X41136Y156099D01*
X41484Y155259D01*
X42037Y154537D01*
X42759Y153984D01*
X43599Y153636D01*
X44500Y153517D01*
X45401Y153636D01*
X46123Y153935D01*
X48279Y151779D01*
X48610Y151558D01*
X49000Y151480D01*
X143078D01*
X146451Y148107D01*
X146379Y148013D01*
X146077Y147283D01*
X145974Y146500D01*
X146077Y145717D01*
X146379Y144987D01*
X146860Y144360D01*
X147487Y143879D01*
X148217Y143577D01*
X149000Y143474D01*
X149783Y143577D01*
X150031Y143680D01*
X150314Y143256D01*
X148078Y141020D01*
X116214D01*
X109512Y147721D01*
X109181Y147942D01*
X108791Y148020D01*
X70325D01*
X70121Y148513D01*
X69640Y149140D01*
X69013Y149620D01*
X68283Y149923D01*
X67500Y150026D01*
X66717Y149923D01*
X65987Y149620D01*
X65360Y149140D01*
X64880Y148513D01*
X64577Y147783D01*
X64474Y147000D01*
X64577Y146217D01*
X64880Y145487D01*
X65360Y144860D01*
X65987Y144379D01*
X66717Y144077D01*
X67500Y143974D01*
X68283Y144077D01*
X69013Y144379D01*
X69640Y144860D01*
X70121Y145487D01*
X70325Y145980D01*
X108369D01*
X115070Y139279D01*
X115401Y139058D01*
X115791Y138980D01*
X144122D01*
X144155Y138480D01*
X143717Y138423D01*
X142987Y138120D01*
X142360Y137640D01*
X141879Y137013D01*
X141577Y136283D01*
X141537Y135979D01*
X120776Y115218D01*
X120283Y115423D01*
X119500Y115526D01*
X118717Y115423D01*
X117987Y115120D01*
X117360Y114640D01*
X116879Y114013D01*
X116577Y113283D01*
X116474Y112500D01*
X116577Y111717D01*
X116879Y110987D01*
X117360Y110360D01*
X117987Y109880D01*
X118717Y109577D01*
X119500Y109474D01*
X120283Y109577D01*
X121013Y109880D01*
X121640Y110360D01*
X122120Y110987D01*
X122423Y111717D01*
X122526Y112500D01*
X122423Y113283D01*
X122218Y113777D01*
X141850Y133408D01*
X142349Y133375D01*
X142360Y133360D01*
X142987Y132879D01*
X143717Y132577D01*
X144500Y132474D01*
X145283Y132577D01*
X145776Y132782D01*
X146574Y131984D01*
X146282Y131584D01*
X145553Y131886D01*
X144770Y131989D01*
X143986Y131886D01*
X143257Y131584D01*
X142630Y131103D01*
X142149Y130476D01*
X141847Y129746D01*
X141744Y128963D01*
X141847Y128180D01*
X142149Y127450D01*
X142630Y126824D01*
X143257Y126343D01*
X143986Y126040D01*
X144770Y125937D01*
X145553Y126040D01*
X146282Y126343D01*
X146909Y126824D01*
X147390Y127450D01*
X147594Y127944D01*
X150128D01*
X152590Y125481D01*
X152399Y125020D01*
X148000D01*
X147610Y124942D01*
X147279Y124721D01*
X146776Y124218D01*
X146283Y124423D01*
X145500Y124526D01*
X144717Y124423D01*
X143987Y124120D01*
X143360Y123640D01*
X142879Y123013D01*
X142577Y122283D01*
X142474Y121500D01*
X142577Y120717D01*
X142879Y119987D01*
X143360Y119360D01*
X143987Y118879D01*
X144717Y118577D01*
X145500Y118474D01*
X146283Y118577D01*
X147013Y118879D01*
X147307Y119105D01*
X147896Y118927D01*
X147918Y118860D01*
X138779Y109721D01*
X138558Y109390D01*
X138480Y109000D01*
Y90574D01*
X138032Y90352D01*
X137765Y90557D01*
X136914Y90910D01*
X136500Y90964D01*
Y87500D01*
Y84036D01*
X136914Y84090D01*
X137765Y84443D01*
X138032Y84648D01*
X138480Y84426D01*
Y56325D01*
X137987Y56121D01*
X137360Y55640D01*
X136880Y55013D01*
X136577Y54283D01*
X136474Y53500D01*
X136577Y52717D01*
X136880Y51987D01*
X137360Y51360D01*
X137987Y50880D01*
X138717Y50577D01*
X139500Y50474D01*
X140283Y50577D01*
X141013Y50880D01*
X141640Y51360D01*
X142121Y51987D01*
X142423Y52717D01*
X142526Y53500D01*
X142423Y54283D01*
X142121Y55013D01*
X141640Y55640D01*
X141013Y56121D01*
X140520Y56325D01*
Y108578D01*
X149723Y117782D01*
X150217Y117577D01*
X151000Y117474D01*
X151651Y117560D01*
X151835Y117440D01*
X151940Y117335D01*
X152060Y117151D01*
X151974Y116500D01*
X152077Y115717D01*
X152282Y115224D01*
X143779Y106721D01*
X143558Y106390D01*
X143480Y106000D01*
Y70266D01*
X143558Y69876D01*
X143779Y69545D01*
X144980Y68344D01*
Y52325D01*
X144487Y52121D01*
X143860Y51640D01*
X143379Y51013D01*
X143077Y50283D01*
X142974Y49500D01*
X143077Y48717D01*
X143379Y47987D01*
X143860Y47360D01*
X144487Y46880D01*
X145217Y46577D01*
X146000Y46474D01*
X146783Y46577D01*
X147513Y46880D01*
X148140Y47360D01*
X148620Y47987D01*
X148923Y48717D01*
X149026Y49500D01*
X148923Y50283D01*
X148620Y51013D01*
X148140Y51640D01*
X147513Y52121D01*
X147020Y52325D01*
Y68766D01*
X146942Y69156D01*
X146721Y69487D01*
X145520Y70688D01*
Y84527D01*
X146020Y84738D01*
X146487Y84380D01*
X147217Y84077D01*
X148000Y83974D01*
X148783Y84077D01*
X149513Y84380D01*
X150140Y84860D01*
X150620Y85487D01*
X150825Y85980D01*
X151578D01*
X154480Y83078D01*
Y80070D01*
X153660Y79250D01*
X153217Y79309D01*
X152434Y79206D01*
X151704Y78903D01*
X151078Y78422D01*
X150597Y77796D01*
X150294Y77066D01*
X150191Y76283D01*
X150294Y75500D01*
X150597Y74770D01*
X151078Y74143D01*
X151704Y73662D01*
X152434Y73360D01*
X153217Y73257D01*
X154000Y73360D01*
X154730Y73662D01*
X155357Y74143D01*
X155838Y74770D01*
X156140Y75500D01*
X156243Y76283D01*
X156140Y77066D01*
X155838Y77796D01*
X155513Y78219D01*
X156221Y78927D01*
X156442Y79258D01*
X156480Y79451D01*
X156980Y79402D01*
Y62500D01*
X157058Y62110D01*
X157279Y61779D01*
X177435Y41623D01*
X177136Y40901D01*
X177017Y40000D01*
X177136Y39099D01*
X177484Y38259D01*
X178038Y37538D01*
X178759Y36984D01*
X179599Y36636D01*
X180500Y36518D01*
X181401Y36636D01*
X182241Y36984D01*
X182963Y37538D01*
X183516Y38259D01*
X183864Y39099D01*
X183983Y40000D01*
X183864Y40901D01*
X183516Y41741D01*
X182963Y42463D01*
X182241Y43016D01*
X181401Y43364D01*
X180500Y43483D01*
X179599Y43364D01*
X178877Y43065D01*
X159020Y62922D01*
Y90175D01*
X159513Y90380D01*
X160140Y90860D01*
X160620Y91487D01*
X160923Y92217D01*
X161026Y93000D01*
X160923Y93783D01*
X160620Y94513D01*
X160140Y95140D01*
X159513Y95621D01*
X158783Y95923D01*
X158000Y96026D01*
X157217Y95923D01*
X156487Y95621D01*
X155860Y95140D01*
X155379Y94513D01*
X155077Y93783D01*
X154974Y93000D01*
X155077Y92217D01*
X155379Y91487D01*
X155860Y90860D01*
X156487Y90380D01*
X156980Y90175D01*
Y83746D01*
X156480Y83697D01*
X156442Y83890D01*
X156221Y84221D01*
X152721Y87721D01*
X152390Y87942D01*
X152000Y88020D01*
X150825D01*
X150620Y88513D01*
X150140Y89140D01*
X149513Y89621D01*
X148783Y89923D01*
X148000Y90026D01*
X147217Y89923D01*
X146487Y89621D01*
X146020Y89262D01*
X145520Y89473D01*
Y105578D01*
X153724Y113782D01*
X154217Y113577D01*
X155000Y113474D01*
X155783Y113577D01*
X156513Y113880D01*
X157140Y114360D01*
X157621Y114987D01*
X157923Y115717D01*
X158026Y116500D01*
X157923Y117283D01*
X157897Y117346D01*
X158320Y117630D01*
X181171Y94779D01*
X181502Y94558D01*
X181892Y94480D01*
X193175D01*
X193379Y93987D01*
X193738Y93520D01*
X193527Y93020D01*
X192672D01*
X192471Y93221D01*
X192140Y93442D01*
X191750Y93520D01*
X180713D01*
X169512Y104721D01*
X169181Y104942D01*
X168791Y105020D01*
X166325D01*
X166121Y105513D01*
X165640Y106140D01*
X165013Y106621D01*
X164283Y106923D01*
X163500Y107026D01*
X162717Y106923D01*
X161987Y106621D01*
X161360Y106140D01*
X160880Y105513D01*
X160577Y104783D01*
X160474Y104000D01*
X160540Y103496D01*
X160533Y103472D01*
X160139Y103078D01*
X160115Y103070D01*
X159611Y103137D01*
X158828Y103034D01*
X158098Y102731D01*
X157471Y102251D01*
X156990Y101624D01*
X156688Y100894D01*
X156585Y100111D01*
X156688Y99328D01*
X156990Y98598D01*
X157471Y97971D01*
X158098Y97490D01*
X158828Y97188D01*
X159611Y97085D01*
X160394Y97188D01*
X161124Y97490D01*
X161375Y97683D01*
X169779Y89279D01*
X170110Y89058D01*
X170500Y88980D01*
X176385D01*
X176576Y88519D01*
X175777Y87718D01*
X175283Y87923D01*
X174500Y88026D01*
X173717Y87923D01*
X172987Y87621D01*
X172360Y87140D01*
X171879Y86513D01*
X171577Y85783D01*
X171474Y85000D01*
X171577Y84217D01*
X171879Y83487D01*
X172360Y82860D01*
X172987Y82380D01*
X173403Y82207D01*
Y81666D01*
X173218Y81590D01*
X172487Y81029D01*
X171926Y80297D01*
X171574Y79446D01*
X171519Y79032D01*
X178448D01*
X178393Y79446D01*
X178041Y80297D01*
X177480Y81029D01*
X176749Y81590D01*
X176081Y81866D01*
X176031Y82240D01*
X176045Y82404D01*
X176640Y82860D01*
X177120Y83487D01*
X177423Y84217D01*
X177526Y85000D01*
X177423Y85783D01*
X177218Y86277D01*
X178422Y87480D01*
X190665D01*
X193867Y84279D01*
X194197Y84058D01*
X194588Y83980D01*
X213578D01*
X236058Y61500D01*
X235279Y60721D01*
X235058Y60390D01*
X234980Y60000D01*
Y55825D01*
X234487Y55620D01*
X233860Y55140D01*
X233380Y54513D01*
X233077Y53783D01*
X232974Y53000D01*
X233077Y52217D01*
X233380Y51487D01*
X233860Y50860D01*
X234487Y50380D01*
X235217Y50077D01*
X236000Y49974D01*
X236783Y50077D01*
X237513Y50380D01*
X238140Y50860D01*
X238620Y51487D01*
X238923Y52217D01*
X239026Y53000D01*
X238923Y53783D01*
X238620Y54513D01*
X238140Y55140D01*
X237513Y55620D01*
X237020Y55825D01*
Y59578D01*
X237807Y60365D01*
X238028Y60696D01*
X238105Y61086D01*
Y61914D01*
X238028Y62304D01*
X237807Y62635D01*
X215426Y85016D01*
X215655Y85495D01*
X216283Y85577D01*
X217013Y85879D01*
X217640Y86360D01*
X218121Y86987D01*
X218423Y87717D01*
X218506Y88345D01*
X218984Y88574D01*
X244041Y63517D01*
X244372Y63296D01*
X244762Y63219D01*
X288339D01*
X330360Y21198D01*
X330040Y20427D01*
X329918Y19500D01*
X330040Y18573D01*
X330398Y17709D01*
X330967Y16967D01*
X331709Y16398D01*
X332573Y16040D01*
X333500Y15918D01*
X334427Y16040D01*
X335291Y16398D01*
X336033Y16967D01*
X336602Y17709D01*
X336960Y18573D01*
X337082Y19500D01*
X336960Y20427D01*
X336602Y21291D01*
X336033Y22033D01*
X335291Y22602D01*
X334427Y22960D01*
X333500Y23082D01*
X332573Y22960D01*
X331802Y22640D01*
X289483Y64959D01*
X289152Y65180D01*
X288762Y65258D01*
X245184D01*
X216020Y94422D01*
Y94450D01*
X215942Y94840D01*
X215721Y95171D01*
X213671Y97221D01*
X213340Y97442D01*
X212950Y97520D01*
X212922D01*
X207416Y103026D01*
X207734Y103415D01*
X207791Y103377D01*
X208181Y103299D01*
X223259D01*
X227282Y99277D01*
X227077Y98783D01*
X226974Y98000D01*
X227077Y97217D01*
X227379Y96487D01*
X227860Y95860D01*
X228487Y95380D01*
X229217Y95077D01*
X230000Y94974D01*
X230783Y95077D01*
X231513Y95380D01*
X232140Y95860D01*
X232480Y96305D01*
X232980Y96135D01*
Y87896D01*
X232487Y87691D01*
X231860Y87211D01*
X231380Y86584D01*
X231077Y85854D01*
X230974Y85071D01*
X231077Y84288D01*
X231380Y83558D01*
X231860Y82931D01*
X232487Y82450D01*
X233217Y82148D01*
X234000Y82045D01*
X234783Y82148D01*
X235513Y82450D01*
X236140Y82931D01*
X236620Y83558D01*
X236923Y84288D01*
X237026Y85071D01*
X236948Y85663D01*
X237405Y85942D01*
X237487Y85879D01*
X238217Y85577D01*
X239000Y85474D01*
X239783Y85577D01*
X240513Y85879D01*
X241140Y86360D01*
X241620Y86987D01*
X241923Y87717D01*
X242026Y88500D01*
X241923Y89283D01*
X241620Y90013D01*
X241140Y90640D01*
X240513Y91120D01*
X240020Y91325D01*
Y107052D01*
X240520Y107152D01*
X240696Y106726D01*
X241577Y105577D01*
X275577Y71577D01*
X276726Y70696D01*
X278064Y70142D01*
X279500Y69952D01*
X280936Y70142D01*
X282274Y70696D01*
X283423Y71577D01*
X284304Y72726D01*
X284858Y74064D01*
X285048Y75500D01*
X284858Y76936D01*
X284304Y78274D01*
X283423Y79423D01*
X249423Y113423D01*
X248274Y114304D01*
X246936Y114858D01*
X245500Y115048D01*
X244064Y114858D01*
X242726Y114304D01*
X241577Y113423D01*
X240696Y112274D01*
X240520Y111848D01*
X240020Y111948D01*
Y121078D01*
X271724Y152782D01*
X272217Y152577D01*
X273000Y152474D01*
X273783Y152577D01*
X274513Y152880D01*
X275140Y153360D01*
X275621Y153987D01*
X275923Y154717D01*
X276026Y155500D01*
X275923Y156283D01*
X275621Y157013D01*
X275140Y157640D01*
X274513Y158121D01*
X273783Y158423D01*
X273596Y158447D01*
X273417Y158975D01*
X284721Y170279D01*
X284942Y170610D01*
X285020Y171000D01*
Y213500D01*
X284942Y213890D01*
X284721Y214221D01*
X278696Y220246D01*
X278795Y221000D01*
X278670Y221953D01*
X278302Y222840D01*
X277717Y223603D01*
X276955Y224188D01*
X276067Y224556D01*
X275114Y224681D01*
X274161Y224556D01*
X273274Y224188D01*
X272511Y223603D01*
X271926Y222840D01*
X271558Y221953D01*
X271433Y221000D01*
X271558Y220047D01*
X271926Y219160D01*
X272511Y218397D01*
X273274Y217812D01*
X274161Y217444D01*
X275114Y217319D01*
X276067Y217444D01*
X276955Y217812D01*
X277685Y218373D01*
X282980Y213078D01*
Y171422D01*
X271578Y160020D01*
X271550D01*
X271160Y159942D01*
X270829Y159721D01*
X268779Y157671D01*
X268558Y157340D01*
X268480Y156950D01*
Y156922D01*
X233279Y121721D01*
X233058Y121390D01*
X232980Y121000D01*
Y99865D01*
X232480Y99695D01*
X232140Y100140D01*
X231513Y100620D01*
X230783Y100923D01*
X230000Y101026D01*
X229217Y100923D01*
X228724Y100718D01*
X224402Y105040D01*
X224169Y105196D01*
X224084Y105585D01*
X224092Y105767D01*
X224368Y105979D01*
X225016Y106823D01*
X225424Y107807D01*
X225562Y108862D01*
X225424Y109918D01*
X225016Y110901D01*
X224368Y111746D01*
X223523Y112394D01*
X222540Y112801D01*
X221484Y112940D01*
X220429Y112801D01*
X219445Y112394D01*
X218601Y111746D01*
X217952Y110901D01*
X217545Y109918D01*
X217406Y108862D01*
X217545Y107807D01*
X217952Y106823D01*
X218601Y105979D01*
X218818Y105812D01*
X218657Y105339D01*
X208603D01*
X203221Y110721D01*
X202890Y110942D01*
X202500Y111020D01*
X190515D01*
X190161Y111480D01*
X190373Y111980D01*
X215622D01*
X216012Y112058D01*
X216343Y112279D01*
X219416Y115352D01*
X219445Y115330D01*
X220429Y114923D01*
X221484Y114784D01*
X222540Y114923D01*
X223523Y115330D01*
X224368Y115979D01*
X225016Y116823D01*
X225424Y117807D01*
X225562Y118862D01*
X225424Y119918D01*
X225016Y120901D01*
X224368Y121746D01*
X223523Y122394D01*
X222540Y122801D01*
X221484Y122940D01*
X220429Y122801D01*
X219445Y122394D01*
X218601Y121746D01*
X217952Y120901D01*
X217545Y119918D01*
X217406Y118862D01*
X217545Y117807D01*
X217952Y116823D01*
X217974Y116794D01*
X215200Y114020D01*
X185950D01*
X185560Y113942D01*
X185229Y113721D01*
X183527Y112020D01*
X171057D01*
X170438Y112639D01*
X170721Y113063D01*
X171217Y112857D01*
X172000Y112754D01*
X172783Y112857D01*
X173513Y113160D01*
X174140Y113640D01*
X174620Y114267D01*
X174923Y114997D01*
X175026Y115780D01*
X174923Y116563D01*
X174856Y116725D01*
X175266Y117040D01*
X175763Y116659D01*
X176492Y116357D01*
X177276Y116254D01*
X178059Y116357D01*
X178788Y116659D01*
X179415Y117140D01*
X179499Y117250D01*
X181270D01*
X181660Y117328D01*
X181991Y117549D01*
X185516Y121074D01*
X185995Y120845D01*
X186077Y120217D01*
X186380Y119487D01*
X186860Y118860D01*
X187487Y118379D01*
X188217Y118077D01*
X189000Y117974D01*
X189783Y118077D01*
X190513Y118379D01*
X191140Y118860D01*
X191621Y119487D01*
X191825Y119980D01*
X192315D01*
X192705Y120058D01*
X193036Y120279D01*
X205143Y132386D01*
X218657D01*
X218818Y131912D01*
X218601Y131746D01*
X217952Y130901D01*
X217545Y129918D01*
X217406Y128862D01*
X217545Y127807D01*
X217952Y126823D01*
X218601Y125979D01*
X219445Y125330D01*
X220429Y124923D01*
X221484Y124784D01*
X222540Y124923D01*
X223523Y125330D01*
X224368Y125979D01*
X225016Y126823D01*
X225424Y127807D01*
X225562Y128862D01*
X225424Y129918D01*
X225016Y130901D01*
X224368Y131746D01*
X223995Y132032D01*
X224041Y132627D01*
X224127Y132685D01*
X268721Y177279D01*
X268942Y177610D01*
X269020Y178000D01*
Y183464D01*
X273341Y187784D01*
X274161Y187444D01*
X275114Y187319D01*
X276067Y187444D01*
X276955Y187812D01*
X277717Y188397D01*
X278302Y189159D01*
X278670Y190047D01*
X278795Y191000D01*
X278670Y191953D01*
X278302Y192841D01*
X277717Y193603D01*
X276955Y194188D01*
X276067Y194556D01*
X275114Y194681D01*
X274161Y194556D01*
X273274Y194188D01*
X272511Y193603D01*
X271926Y192841D01*
X271558Y191953D01*
X271433Y191000D01*
X271558Y190047D01*
X271899Y189226D01*
X267279Y184607D01*
X267058Y184276D01*
X266980Y183886D01*
Y178422D01*
X226442Y137884D01*
X225969Y138118D01*
X226001Y138362D01*
X221484D01*
X216968D01*
X217058Y137676D01*
X217516Y136571D01*
X218244Y135622D01*
X219152Y134925D01*
X219152Y134869D01*
X218817Y134425D01*
X204720D01*
X204330Y134347D01*
X203999Y134126D01*
X192227Y122354D01*
X191638Y122472D01*
X191621Y122513D01*
X191140Y123140D01*
X190513Y123620D01*
X189783Y123923D01*
X189155Y124005D01*
X188926Y124484D01*
X193147Y128705D01*
X194225D01*
X194615Y128783D01*
X194946Y129004D01*
X211342Y145400D01*
X211563Y145731D01*
X211641Y146121D01*
Y153956D01*
X214795Y157111D01*
X215016Y157441D01*
X215094Y157832D01*
Y159530D01*
X216979Y161416D01*
X217441Y161224D01*
Y154819D01*
X225528D01*
Y162906D01*
X219122D01*
X218931Y163367D01*
X220544Y164980D01*
X230121D01*
X230511Y165058D01*
X230842Y165279D01*
X273345Y207782D01*
X274161Y207444D01*
X275114Y207319D01*
X276067Y207444D01*
X276955Y207812D01*
X277717Y208397D01*
X278302Y209159D01*
X278670Y210047D01*
X278795Y211000D01*
X278670Y211953D01*
X278302Y212841D01*
X277717Y213603D01*
X276955Y214188D01*
X276067Y214556D01*
X275114Y214681D01*
X274161Y214556D01*
X273274Y214188D01*
X272511Y213603D01*
X271926Y212841D01*
X271558Y211953D01*
X271433Y211000D01*
X271558Y210047D01*
X271901Y209221D01*
X267982Y205302D01*
X267520Y205493D01*
Y221964D01*
X273341Y227784D01*
X274161Y227444D01*
X275114Y227319D01*
X276067Y227444D01*
X276955Y227812D01*
X277717Y228397D01*
X278302Y229159D01*
X278670Y230047D01*
X278795Y231000D01*
X278670Y231953D01*
X278302Y232840D01*
X277717Y233603D01*
X276955Y234188D01*
X276067Y234556D01*
X275114Y234681D01*
X274161Y234556D01*
X273274Y234188D01*
X272511Y233603D01*
X271926Y232840D01*
X271558Y231953D01*
X271433Y231000D01*
X271558Y230047D01*
X271899Y229226D01*
X265779Y223107D01*
X265558Y222776D01*
X265480Y222386D01*
Y204922D01*
X263982Y203424D01*
X263520Y203615D01*
Y227963D01*
X273341Y237784D01*
X274161Y237444D01*
X275114Y237319D01*
X276067Y237444D01*
X276955Y237812D01*
X277717Y238397D01*
X278302Y239159D01*
X278670Y240047D01*
X278795Y241000D01*
X278670Y241953D01*
X278302Y242841D01*
X277717Y243603D01*
X276955Y244188D01*
X276067Y244556D01*
X275114Y244681D01*
X274161Y244556D01*
X273274Y244188D01*
X272511Y243603D01*
X271926Y242841D01*
X271558Y241953D01*
X271433Y241000D01*
X271558Y240047D01*
X271899Y239226D01*
X261779Y229107D01*
X261558Y228776D01*
X261480Y228386D01*
Y203044D01*
X228956Y170520D01*
X228115D01*
X227923Y170982D01*
X258221Y201279D01*
X258442Y201610D01*
X258520Y202000D01*
Y232963D01*
X272906Y247350D01*
X278764D01*
Y254650D01*
D02*
G37*
G36*
X334236Y239236D02*
X327764D01*
Y232764D01*
X334236D01*
Y239236D01*
D02*
G37*
G36*
X321000Y239264D02*
X320155Y239153D01*
X319368Y238827D01*
X318692Y238308D01*
X318173Y237632D01*
X317847Y236845D01*
X317736Y236000D01*
X317847Y235155D01*
X318173Y234368D01*
X318692Y233692D01*
X319368Y233173D01*
X320155Y232847D01*
X321000Y232736D01*
X321845Y232847D01*
X322632Y233173D01*
X323308Y233692D01*
X323827Y234368D01*
X324153Y235155D01*
X324264Y236000D01*
X324153Y236845D01*
X323827Y237632D01*
X323308Y238308D01*
X322632Y238827D01*
X321845Y239153D01*
X321000Y239264D01*
D02*
G37*
G36*
X235614Y235060D02*
Y231500D01*
X239174D01*
X239099Y232068D01*
X238687Y233063D01*
X238032Y233917D01*
X237177Y234573D01*
X236182Y234985D01*
X235614Y235060D01*
D02*
G37*
G36*
X234614Y235060D02*
X234046Y234985D01*
X233051Y234573D01*
X232197Y233917D01*
X231541Y233063D01*
X231129Y232068D01*
X231054Y231500D01*
X234614D01*
Y235060D01*
D02*
G37*
G36*
X248705Y234591D02*
X241524D01*
Y227410D01*
X248705D01*
Y234591D01*
D02*
G37*
G36*
X234614Y230500D02*
X231054D01*
X231129Y229932D01*
X231541Y228937D01*
X232197Y228083D01*
X233051Y227427D01*
X234046Y227015D01*
X234614Y226940D01*
Y230500D01*
D02*
G37*
G36*
X239174D02*
X235614D01*
Y226940D01*
X236182Y227015D01*
X237177Y227427D01*
X238032Y228083D01*
X238687Y228937D01*
X239099Y229932D01*
X239174Y230500D01*
D02*
G37*
G36*
X331000Y229264D02*
X330155Y229153D01*
X329368Y228827D01*
X328692Y228308D01*
X328173Y227632D01*
X327847Y226845D01*
X327736Y226000D01*
X327847Y225155D01*
X328173Y224368D01*
X328692Y223692D01*
X329368Y223173D01*
X330155Y222847D01*
X331000Y222736D01*
X331845Y222847D01*
X332632Y223173D01*
X333308Y223692D01*
X333827Y224368D01*
X334153Y225155D01*
X334264Y226000D01*
X334153Y226845D01*
X333827Y227632D01*
X333308Y228308D01*
X332632Y228827D01*
X331845Y229153D01*
X331000Y229264D01*
D02*
G37*
G36*
X321000D02*
X320155Y229153D01*
X319368Y228827D01*
X318692Y228308D01*
X318173Y227632D01*
X317847Y226845D01*
X317736Y226000D01*
X317847Y225155D01*
X318173Y224368D01*
X318692Y223692D01*
X319368Y223173D01*
X320155Y222847D01*
X321000Y222736D01*
X321845Y222847D01*
X322632Y223173D01*
X323308Y223692D01*
X323827Y224368D01*
X324153Y225155D01*
X324264Y226000D01*
X324153Y226845D01*
X323827Y227632D01*
X323308Y228308D01*
X322632Y228827D01*
X321845Y229153D01*
X321000Y229264D01*
D02*
G37*
G36*
X235614Y225060D02*
Y221500D01*
X239174D01*
X239099Y222068D01*
X238687Y223063D01*
X238032Y223917D01*
X237177Y224573D01*
X236182Y224985D01*
X235614Y225060D01*
D02*
G37*
G36*
X234614Y225060D02*
X234046Y224985D01*
X233051Y224573D01*
X232197Y223917D01*
X231541Y223063D01*
X231129Y222068D01*
X231054Y221500D01*
X234614D01*
Y225060D01*
D02*
G37*
G36*
X245114Y224622D02*
X244177Y224498D01*
X243303Y224136D01*
X242553Y223561D01*
X241978Y222811D01*
X241616Y221937D01*
X241493Y221000D01*
X241616Y220063D01*
X241978Y219189D01*
X242553Y218439D01*
X243303Y217864D01*
X244177Y217502D01*
X245114Y217378D01*
X246052Y217502D01*
X246925Y217864D01*
X247675Y218439D01*
X248251Y219189D01*
X248612Y220063D01*
X248736Y221000D01*
X248612Y221937D01*
X248251Y222811D01*
X247675Y223561D01*
X246925Y224136D01*
X246052Y224498D01*
X245114Y224622D01*
D02*
G37*
G36*
X234614Y220500D02*
X231054D01*
X231129Y219932D01*
X231541Y218937D01*
X232197Y218083D01*
X233051Y217427D01*
X234046Y217015D01*
X234614Y216940D01*
Y220500D01*
D02*
G37*
G36*
X239174D02*
X235614D01*
Y216940D01*
X236182Y217015D01*
X237177Y217427D01*
X238032Y218083D01*
X238687Y218937D01*
X239099Y219932D01*
X239174Y220500D01*
D02*
G37*
G36*
X331000Y219264D02*
X330155Y219153D01*
X329368Y218827D01*
X328692Y218308D01*
X328173Y217632D01*
X327847Y216845D01*
X327736Y216000D01*
X327847Y215155D01*
X328101Y214543D01*
X326543Y212985D01*
X326322Y212654D01*
X326244Y212264D01*
Y143236D01*
X326322Y142846D01*
X326543Y142515D01*
X327480Y141578D01*
Y136668D01*
X326767Y136372D01*
X326141Y135892D01*
X325660Y135265D01*
X325358Y134535D01*
X325255Y133752D01*
X325358Y132969D01*
X325660Y132239D01*
X326141Y131612D01*
X326767Y131131D01*
X327497Y130829D01*
X328280Y130726D01*
X329064Y130829D01*
X329793Y131131D01*
X330420Y131612D01*
X330901Y132239D01*
X331203Y132969D01*
X331306Y133752D01*
X331203Y134535D01*
X330901Y135265D01*
X330420Y135892D01*
X329793Y136372D01*
X329520Y136486D01*
Y142000D01*
X329442Y142390D01*
X329221Y142721D01*
X328283Y143658D01*
Y193476D01*
X328783Y193622D01*
X329368Y193173D01*
X330155Y192847D01*
X331000Y192736D01*
X331845Y192847D01*
X332632Y193173D01*
X333308Y193692D01*
X333827Y194368D01*
X334153Y195155D01*
X334264Y196000D01*
X334153Y196845D01*
X333827Y197632D01*
X333308Y198308D01*
X332632Y198827D01*
X331845Y199153D01*
X331000Y199264D01*
X330155Y199153D01*
X329368Y198827D01*
X328783Y198378D01*
X328283Y198524D01*
Y203476D01*
X328783Y203622D01*
X329368Y203173D01*
X330155Y202847D01*
X331000Y202736D01*
X331845Y202847D01*
X332457Y203101D01*
X337980Y197578D01*
Y134958D01*
X337717Y134923D01*
X336987Y134620D01*
X336360Y134140D01*
X335879Y133513D01*
X335577Y132783D01*
X335474Y132000D01*
X335577Y131217D01*
X335879Y130487D01*
X336360Y129860D01*
X336987Y129379D01*
X337717Y129077D01*
X338500Y128974D01*
X339283Y129077D01*
X340013Y129379D01*
X340640Y129860D01*
X341121Y130487D01*
X341423Y131217D01*
X341526Y132000D01*
X341423Y132783D01*
X341121Y133513D01*
X340640Y134140D01*
X340020Y134615D01*
Y198000D01*
X339942Y198390D01*
X339721Y198721D01*
X333899Y204543D01*
X334153Y205155D01*
X334264Y206000D01*
X334153Y206845D01*
X333827Y207632D01*
X333308Y208308D01*
X332632Y208827D01*
X331845Y209153D01*
X331000Y209264D01*
X330155Y209153D01*
X329368Y208827D01*
X328783Y208378D01*
X328283Y208524D01*
Y211841D01*
X329543Y213101D01*
X330155Y212847D01*
X331000Y212736D01*
X331845Y212847D01*
X332632Y213173D01*
X333308Y213692D01*
X333827Y214368D01*
X334153Y215155D01*
X334264Y216000D01*
X334153Y216845D01*
X333827Y217632D01*
X333308Y218308D01*
X332632Y218827D01*
X331845Y219153D01*
X331000Y219264D01*
D02*
G37*
G36*
X321000D02*
X320155Y219153D01*
X319368Y218827D01*
X318692Y218308D01*
X318173Y217632D01*
X317847Y216845D01*
X317736Y216000D01*
X317847Y215155D01*
X318173Y214368D01*
X318692Y213692D01*
X319368Y213173D01*
X320155Y212847D01*
X321000Y212736D01*
X321845Y212847D01*
X322632Y213173D01*
X323308Y213692D01*
X323827Y214368D01*
X324153Y215155D01*
X324264Y216000D01*
X324153Y216845D01*
X323827Y217632D01*
X323308Y218308D01*
X322632Y218827D01*
X321845Y219153D01*
X321000Y219264D01*
D02*
G37*
G36*
X235614Y215060D02*
Y211500D01*
X239174D01*
X239099Y212068D01*
X238687Y213063D01*
X238032Y213917D01*
X237177Y214573D01*
X236182Y214985D01*
X235614Y215060D01*
D02*
G37*
G36*
X234614Y215060D02*
X234046Y214985D01*
X233051Y214573D01*
X232197Y213917D01*
X231541Y213063D01*
X231129Y212068D01*
X231054Y211500D01*
X234614D01*
Y215060D01*
D02*
G37*
G36*
X245114Y214621D02*
X244177Y214498D01*
X243303Y214136D01*
X242553Y213561D01*
X241978Y212811D01*
X241616Y211937D01*
X241493Y211000D01*
X241616Y210063D01*
X241978Y209189D01*
X242553Y208439D01*
X243303Y207864D01*
X244177Y207502D01*
X245114Y207379D01*
X246052Y207502D01*
X246925Y207864D01*
X247675Y208439D01*
X248251Y209189D01*
X248612Y210063D01*
X248736Y211000D01*
X248612Y211937D01*
X248251Y212811D01*
X247675Y213561D01*
X246925Y214136D01*
X246052Y214498D01*
X245114Y214621D01*
D02*
G37*
G36*
X234614Y210500D02*
X231054D01*
X231129Y209932D01*
X231541Y208937D01*
X232197Y208083D01*
X233051Y207427D01*
X234046Y207015D01*
X234614Y206940D01*
Y210500D01*
D02*
G37*
G36*
X239174D02*
X235614D01*
Y206940D01*
X236182Y207015D01*
X237177Y207427D01*
X238032Y208083D01*
X238687Y208937D01*
X239099Y209932D01*
X239174Y210500D01*
D02*
G37*
G36*
X321000Y209264D02*
X320155Y209153D01*
X319368Y208827D01*
X318692Y208308D01*
X318173Y207632D01*
X317847Y206845D01*
X317736Y206000D01*
X317847Y205155D01*
X318173Y204368D01*
X318692Y203692D01*
X319368Y203173D01*
X320155Y202847D01*
X321000Y202736D01*
X321845Y202847D01*
X322632Y203173D01*
X323308Y203692D01*
X323827Y204368D01*
X324153Y205155D01*
X324264Y206000D01*
X324153Y206845D01*
X323827Y207632D01*
X323308Y208308D01*
X322632Y208827D01*
X321845Y209153D01*
X321000Y209264D01*
D02*
G37*
G36*
X184000Y204464D02*
Y201500D01*
X186964D01*
X186910Y201914D01*
X186557Y202765D01*
X185996Y203496D01*
X185265Y204057D01*
X184414Y204410D01*
X184000Y204464D01*
D02*
G37*
G36*
X183000D02*
X182586Y204410D01*
X181735Y204057D01*
X181004Y203496D01*
X180443Y202765D01*
X180090Y201914D01*
X180036Y201500D01*
X183000D01*
Y204464D01*
D02*
G37*
G36*
X235614Y205060D02*
Y201500D01*
X239174D01*
X239099Y202068D01*
X238687Y203063D01*
X238032Y203917D01*
X237177Y204573D01*
X236182Y204985D01*
X235614Y205060D01*
D02*
G37*
G36*
X234614Y205060D02*
X234046Y204985D01*
X233051Y204573D01*
X232197Y203917D01*
X231541Y203063D01*
X231129Y202068D01*
X231054Y201500D01*
X234614D01*
Y205060D01*
D02*
G37*
G36*
X186964Y200500D02*
X184000D01*
Y197536D01*
X184414Y197590D01*
X185265Y197943D01*
X185996Y198504D01*
X186557Y199235D01*
X186910Y200086D01*
X186964Y200500D01*
D02*
G37*
G36*
X183000D02*
X180036D01*
X180090Y200086D01*
X180443Y199235D01*
X181004Y198504D01*
X181735Y197943D01*
X182586Y197590D01*
X183000Y197536D01*
Y200500D01*
D02*
G37*
G36*
X245114Y204622D02*
X244177Y204498D01*
X243303Y204136D01*
X242553Y203561D01*
X241978Y202811D01*
X241616Y201937D01*
X241493Y201000D01*
X241616Y200063D01*
X241978Y199189D01*
X242553Y198439D01*
X243303Y197864D01*
X244177Y197502D01*
X245114Y197379D01*
X246052Y197502D01*
X246925Y197864D01*
X247675Y198439D01*
X248251Y199189D01*
X248612Y200063D01*
X248736Y201000D01*
X248612Y201937D01*
X248251Y202811D01*
X247675Y203561D01*
X246925Y204136D01*
X246052Y204498D01*
X245114Y204622D01*
D02*
G37*
G36*
X275114Y204681D02*
X274161Y204556D01*
X273274Y204188D01*
X272511Y203603D01*
X271926Y202841D01*
X271558Y201953D01*
X271433Y201000D01*
X271558Y200047D01*
X271926Y199159D01*
X272511Y198397D01*
X273274Y197812D01*
X274161Y197444D01*
X275114Y197319D01*
X276067Y197444D01*
X276955Y197812D01*
X277717Y198397D01*
X278302Y199159D01*
X278670Y200047D01*
X278795Y201000D01*
X278670Y201953D01*
X278302Y202841D01*
X277717Y203603D01*
X276955Y204188D01*
X276067Y204556D01*
X275114Y204681D01*
D02*
G37*
G36*
X234614Y200500D02*
X231054D01*
X231129Y199932D01*
X231541Y198937D01*
X232197Y198083D01*
X233051Y197427D01*
X234046Y197015D01*
X234614Y196940D01*
Y200500D01*
D02*
G37*
G36*
X239174D02*
X235614D01*
Y196940D01*
X236182Y197015D01*
X237177Y197427D01*
X238032Y198083D01*
X238687Y198937D01*
X239099Y199932D01*
X239174Y200500D01*
D02*
G37*
G36*
X321000Y199264D02*
X320155Y199153D01*
X319368Y198827D01*
X318692Y198308D01*
X318173Y197632D01*
X317847Y196845D01*
X317736Y196000D01*
X317847Y195155D01*
X318173Y194368D01*
X318692Y193692D01*
X319368Y193173D01*
X320155Y192847D01*
X321000Y192736D01*
X321845Y192847D01*
X322632Y193173D01*
X323308Y193692D01*
X323827Y194368D01*
X324153Y195155D01*
X324264Y196000D01*
X324153Y196845D01*
X323827Y197632D01*
X323308Y198308D01*
X322632Y198827D01*
X321845Y199153D01*
X321000Y199264D01*
D02*
G37*
G36*
X275614Y185120D02*
Y181500D01*
X279234D01*
X279157Y182083D01*
X278739Y183093D01*
X278074Y183959D01*
X277207Y184625D01*
X276197Y185043D01*
X275614Y185120D01*
D02*
G37*
G36*
X274614Y185120D02*
X274031Y185043D01*
X273022Y184625D01*
X272155Y183959D01*
X271490Y183093D01*
X271071Y182083D01*
X270995Y181500D01*
X274614D01*
Y185120D01*
D02*
G37*
G36*
X162518Y181695D02*
Y178730D01*
X165482D01*
X165428Y179144D01*
X165075Y179995D01*
X164514Y180727D01*
X163783Y181288D01*
X162931Y181640D01*
X162518Y181695D01*
D02*
G37*
G36*
X161518D02*
X161104Y181640D01*
X160253Y181288D01*
X159521Y180727D01*
X158960Y179995D01*
X158608Y179144D01*
X158553Y178730D01*
X161518D01*
Y181695D01*
D02*
G37*
G36*
X274614Y180500D02*
X270995D01*
X271071Y179917D01*
X271490Y178907D01*
X272155Y178041D01*
X273022Y177375D01*
X274031Y176957D01*
X274614Y176880D01*
Y180500D01*
D02*
G37*
G36*
X279234D02*
X275614D01*
Y176880D01*
X276197Y176957D01*
X277207Y177375D01*
X278074Y178041D01*
X278739Y178907D01*
X279157Y179917D01*
X279234Y180500D01*
D02*
G37*
G36*
X165482Y177730D02*
X162518D01*
Y174766D01*
X162931Y174820D01*
X163783Y175173D01*
X164514Y175734D01*
X165075Y176465D01*
X165428Y177317D01*
X165482Y177730D01*
D02*
G37*
G36*
X161518D02*
X158553D01*
X158608Y177317D01*
X158960Y176465D01*
X159521Y175734D01*
X160253Y175173D01*
X161104Y174820D01*
X161518Y174766D01*
Y177730D01*
D02*
G37*
G36*
X44500Y170483D02*
X43599Y170364D01*
X42759Y170016D01*
X42037Y169463D01*
X41484Y168741D01*
X41136Y167901D01*
X41017Y167000D01*
X41136Y166099D01*
X41484Y165259D01*
X42037Y164538D01*
X42759Y163984D01*
X43599Y163636D01*
X44500Y163517D01*
X45401Y163636D01*
X46241Y163984D01*
X46962Y164538D01*
X47516Y165259D01*
X47864Y166099D01*
X47982Y167000D01*
X47864Y167901D01*
X47516Y168741D01*
X46962Y169463D01*
X46241Y170016D01*
X45401Y170364D01*
X44500Y170483D01*
D02*
G37*
G36*
X130000Y182526D02*
X129217Y182423D01*
X128487Y182121D01*
X127860Y181640D01*
X127380Y181013D01*
X127077Y180283D01*
X126974Y179500D01*
X127077Y178717D01*
X127380Y177987D01*
X127860Y177360D01*
X128487Y176880D01*
X129217Y176577D01*
X130000Y176474D01*
X130087Y176486D01*
X139268Y167305D01*
X139063Y166812D01*
X138960Y166029D01*
X139063Y165245D01*
X139366Y164516D01*
X139847Y163889D01*
X140473Y163408D01*
X141203Y163106D01*
X141986Y163003D01*
X142769Y163106D01*
X143499Y163408D01*
X144126Y163889D01*
X144607Y164516D01*
X144909Y165245D01*
X145012Y166029D01*
X144909Y166812D01*
X144607Y167542D01*
X144126Y168168D01*
X143499Y168649D01*
X142769Y168951D01*
X141986Y169055D01*
X141203Y168951D01*
X140710Y168747D01*
X132137Y177320D01*
X132140Y177360D01*
X132621Y177987D01*
X132923Y178717D01*
X133026Y179500D01*
X132923Y180283D01*
X132621Y181013D01*
X132140Y181640D01*
X131513Y182121D01*
X130783Y182423D01*
X130000Y182526D01*
D02*
G37*
G36*
X113301Y165912D02*
Y162947D01*
X116265D01*
X116211Y163361D01*
X115858Y164213D01*
X115297Y164944D01*
X114566Y165505D01*
X113715Y165857D01*
X113301Y165912D01*
D02*
G37*
G36*
X112301D02*
X111887Y165857D01*
X111036Y165505D01*
X110305Y164944D01*
X109744Y164213D01*
X109391Y163361D01*
X109337Y162947D01*
X112301D01*
Y165912D01*
D02*
G37*
G36*
X116265Y161947D02*
X113301D01*
Y158983D01*
X113715Y159037D01*
X114566Y159390D01*
X115297Y159951D01*
X115858Y160682D01*
X116211Y161534D01*
X116265Y161947D01*
D02*
G37*
G36*
X112301D02*
X109337D01*
X109391Y161534D01*
X109744Y160682D01*
X110305Y159951D01*
X111036Y159390D01*
X111887Y159037D01*
X112301Y158983D01*
Y161947D01*
D02*
G37*
G36*
X45000Y150921D02*
Y147500D01*
X48421D01*
X48351Y148032D01*
X47953Y148993D01*
X47319Y149819D01*
X46493Y150453D01*
X45532Y150851D01*
X45000Y150921D01*
D02*
G37*
G36*
X44000D02*
X43468Y150851D01*
X42507Y150453D01*
X41681Y149819D01*
X41047Y148993D01*
X40649Y148032D01*
X40579Y147500D01*
X44000D01*
Y150921D01*
D02*
G37*
G36*
X221484Y152940D02*
X220429Y152801D01*
X219445Y152394D01*
X218601Y151746D01*
X217952Y150901D01*
X217545Y149918D01*
X217406Y148862D01*
X217545Y147807D01*
X217952Y146823D01*
X218601Y145978D01*
X219445Y145330D01*
X220429Y144923D01*
X221484Y144784D01*
X222540Y144923D01*
X223523Y145330D01*
X224368Y145978D01*
X225016Y146823D01*
X225424Y147807D01*
X225562Y148862D01*
X225424Y149918D01*
X225016Y150901D01*
X224368Y151746D01*
X223523Y152394D01*
X222540Y152801D01*
X221484Y152940D01*
D02*
G37*
G36*
X48421Y146500D02*
X45000D01*
Y143079D01*
X45532Y143149D01*
X46493Y143547D01*
X47319Y144181D01*
X47953Y145007D01*
X48351Y145968D01*
X48421Y146500D01*
D02*
G37*
G36*
X44000D02*
X40579D01*
X40649Y145968D01*
X41047Y145007D01*
X41681Y144181D01*
X42507Y143547D01*
X43468Y143149D01*
X44000Y143079D01*
Y146500D01*
D02*
G37*
G36*
X221984Y143379D02*
Y139362D01*
X226001D01*
X225911Y140048D01*
X225453Y141153D01*
X224725Y142103D01*
X223776Y142831D01*
X222670Y143289D01*
X221984Y143379D01*
D02*
G37*
G36*
X220984Y143379D02*
X220298Y143289D01*
X219193Y142831D01*
X218244Y142103D01*
X217516Y141153D01*
X217058Y140048D01*
X216968Y139362D01*
X220984D01*
Y143379D01*
D02*
G37*
G36*
X47953Y140453D02*
X41047D01*
Y133547D01*
X47953D01*
Y140453D01*
D02*
G37*
G36*
X101000Y130526D02*
X100217Y130423D01*
X99487Y130121D01*
X98860Y129640D01*
X98379Y129013D01*
X98077Y128283D01*
X97974Y127500D01*
X98077Y126717D01*
X98379Y125987D01*
X98860Y125360D01*
X99487Y124880D01*
X100217Y124577D01*
X101000Y124474D01*
X101783Y124577D01*
X102513Y124880D01*
X103140Y125360D01*
X103621Y125987D01*
X103825Y126480D01*
X106078D01*
X110782Y121776D01*
X110577Y121283D01*
X110474Y120500D01*
X110577Y119717D01*
X110880Y118987D01*
X111360Y118360D01*
X111987Y117879D01*
X112717Y117577D01*
X113500Y117474D01*
X114283Y117577D01*
X115013Y117879D01*
X115640Y118360D01*
X116121Y118987D01*
X116423Y119717D01*
X116526Y120500D01*
X116423Y121283D01*
X116121Y122013D01*
X115640Y122640D01*
X115013Y123120D01*
X114283Y123423D01*
X113500Y123526D01*
X112717Y123423D01*
X112223Y123218D01*
X107221Y128221D01*
X106890Y128442D01*
X106500Y128520D01*
X103825D01*
X103621Y129013D01*
X103140Y129640D01*
X102513Y130121D01*
X101783Y130423D01*
X101000Y130526D01*
D02*
G37*
G36*
X94500Y109464D02*
Y106500D01*
X97464D01*
X97410Y106914D01*
X97057Y107765D01*
X96496Y108496D01*
X95765Y109057D01*
X94914Y109410D01*
X94500Y109464D01*
D02*
G37*
G36*
X93500D02*
X93086Y109410D01*
X92235Y109057D01*
X91504Y108496D01*
X90943Y107765D01*
X90590Y106914D01*
X90536Y106500D01*
X93500D01*
Y109464D01*
D02*
G37*
G36*
X97464Y105500D02*
X94500D01*
Y102536D01*
X94914Y102590D01*
X95765Y102943D01*
X96496Y103504D01*
X97057Y104235D01*
X97410Y105086D01*
X97464Y105500D01*
D02*
G37*
G36*
X93500D02*
X90536D01*
X90590Y105086D01*
X90943Y104235D01*
X91504Y103504D01*
X92235Y102943D01*
X93086Y102590D01*
X93500Y102536D01*
Y105500D01*
D02*
G37*
G36*
X135500Y90964D02*
X135086Y90910D01*
X134235Y90557D01*
X133504Y89996D01*
X132943Y89265D01*
X132590Y88414D01*
X132536Y88000D01*
X135500D01*
Y90964D01*
D02*
G37*
G36*
Y87000D02*
X132536D01*
X132590Y86586D01*
X132943Y85735D01*
X133504Y85004D01*
X134235Y84443D01*
X135086Y84090D01*
X135500Y84036D01*
Y87000D01*
D02*
G37*
G36*
X87000Y84181D02*
X86047Y84056D01*
X85159Y83688D01*
X84397Y83103D01*
X83812Y82341D01*
X83444Y81453D01*
X83319Y80500D01*
X83444Y79547D01*
X83812Y78659D01*
X84397Y77897D01*
X85159Y77312D01*
X86047Y76944D01*
X87000Y76819D01*
X87953Y76944D01*
X88841Y77312D01*
X89603Y77897D01*
X90188Y78659D01*
X90556Y79547D01*
X90681Y80500D01*
X90556Y81453D01*
X90188Y82341D01*
X89603Y83103D01*
X88841Y83688D01*
X87953Y84056D01*
X87000Y84181D01*
D02*
G37*
G36*
X178448Y78032D02*
X175484D01*
Y75068D01*
X175897Y75122D01*
X176749Y75475D01*
X177480Y76036D01*
X178041Y76767D01*
X178393Y77619D01*
X178448Y78032D01*
D02*
G37*
G36*
X174484D02*
X171519D01*
X171574Y77619D01*
X171926Y76767D01*
X172487Y76036D01*
X173218Y75475D01*
X174070Y75122D01*
X174484Y75068D01*
Y78032D01*
D02*
G37*
G36*
X165500Y79526D02*
X164717Y79423D01*
X163987Y79120D01*
X163360Y78640D01*
X162880Y78013D01*
X162577Y77283D01*
X162474Y76500D01*
X162577Y75717D01*
X162880Y74987D01*
X163360Y74360D01*
X163987Y73879D01*
X164717Y73577D01*
X165500Y73474D01*
X166283Y73577D01*
X167013Y73879D01*
X167640Y74360D01*
X168121Y74987D01*
X168423Y75717D01*
X168526Y76500D01*
X168423Y77283D01*
X168121Y78013D01*
X167640Y78640D01*
X167013Y79120D01*
X166283Y79423D01*
X165500Y79526D01*
D02*
G37*
G36*
X220000Y74526D02*
X219217Y74423D01*
X218487Y74120D01*
X217860Y73640D01*
X217379Y73013D01*
X217077Y72283D01*
X216974Y71500D01*
X217077Y70717D01*
X217126Y70599D01*
X216792Y70099D01*
X175357D01*
X175153Y70592D01*
X174672Y71219D01*
X174045Y71700D01*
X173315Y72002D01*
X172532Y72105D01*
X171749Y72002D01*
X171019Y71700D01*
X170392Y71219D01*
X169912Y70592D01*
X169609Y69863D01*
X169506Y69080D01*
X169609Y68296D01*
X169912Y67567D01*
X170392Y66940D01*
X171019Y66459D01*
X171749Y66157D01*
X172532Y66054D01*
X173315Y66157D01*
X174045Y66459D01*
X174672Y66940D01*
X175153Y67567D01*
X175357Y68060D01*
X217580D01*
X217970Y68138D01*
X218301Y68359D01*
X218724Y68782D01*
X219217Y68577D01*
X220000Y68474D01*
X220783Y68577D01*
X221513Y68879D01*
X222140Y69360D01*
X222621Y69987D01*
X222923Y70717D01*
X223026Y71500D01*
X222923Y72283D01*
X222621Y73013D01*
X222140Y73640D01*
X221513Y74120D01*
X220783Y74423D01*
X220000Y74526D01*
D02*
G37*
G36*
X46000Y66681D02*
X45047Y66556D01*
X44159Y66188D01*
X43397Y65603D01*
X42812Y64841D01*
X42444Y63953D01*
X42319Y63000D01*
X42444Y62047D01*
X42812Y61159D01*
X43397Y60397D01*
X44159Y59812D01*
X45047Y59444D01*
X46000Y59319D01*
X46953Y59444D01*
X47840Y59812D01*
X48603Y60397D01*
X49188Y61159D01*
X49556Y62047D01*
X49681Y63000D01*
X49556Y63953D01*
X49188Y64841D01*
X48603Y65603D01*
X47840Y66188D01*
X46953Y66556D01*
X46000Y66681D01*
D02*
G37*
G36*
X46333Y53515D02*
X45380Y53390D01*
X44493Y53022D01*
X43730Y52437D01*
X43145Y51675D01*
X42777Y50787D01*
X42652Y49834D01*
X42777Y48882D01*
X43145Y47994D01*
X43730Y47231D01*
X44493Y46646D01*
X45380Y46279D01*
X46333Y46153D01*
X47286Y46279D01*
X48174Y46646D01*
X48936Y47231D01*
X49521Y47994D01*
X49889Y48882D01*
X50014Y49834D01*
X49889Y50787D01*
X49521Y51675D01*
X48936Y52437D01*
X48174Y53022D01*
X47286Y53390D01*
X46333Y53515D01*
D02*
G37*
G36*
X130000Y116526D02*
X129217Y116423D01*
X128487Y116121D01*
X127860Y115640D01*
X127380Y115013D01*
X127077Y114283D01*
X126974Y113500D01*
X127077Y112717D01*
X127380Y111987D01*
X127860Y111360D01*
X128487Y110880D01*
X128980Y110675D01*
Y50000D01*
X129058Y49610D01*
X129279Y49279D01*
X134779Y43779D01*
X135110Y43558D01*
X135500Y43480D01*
X146559D01*
X147047Y43453D01*
X147047Y42980D01*
Y36547D01*
X153953D01*
X153953Y43453D01*
X154441Y43480D01*
X157721D01*
X157891Y42980D01*
X157681Y42819D01*
X157047Y41993D01*
X156649Y41032D01*
X156579Y40500D01*
X164421D01*
X164351Y41032D01*
X163953Y41993D01*
X163319Y42819D01*
X163109Y42980D01*
X163279Y43480D01*
X165578D01*
X167435Y41623D01*
X167136Y40901D01*
X167017Y40000D01*
X167136Y39099D01*
X167484Y38259D01*
X168037Y37538D01*
X168759Y36984D01*
X169599Y36636D01*
X170500Y36518D01*
X171401Y36636D01*
X172241Y36984D01*
X172962Y37538D01*
X173516Y38259D01*
X173864Y39099D01*
X173983Y40000D01*
X173864Y40901D01*
X173516Y41741D01*
X172962Y42463D01*
X172241Y43016D01*
X171401Y43364D01*
X170500Y43483D01*
X169599Y43364D01*
X168877Y43065D01*
X166721Y45221D01*
X166390Y45442D01*
X166000Y45520D01*
X135922D01*
X131020Y50422D01*
Y110675D01*
X131513Y110880D01*
X132140Y111360D01*
X132621Y111987D01*
X132923Y112717D01*
X133026Y113500D01*
X132923Y114283D01*
X132621Y115013D01*
X132140Y115640D01*
X131513Y116121D01*
X130783Y116423D01*
X130000Y116526D01*
D02*
G37*
G36*
X58000Y41013D02*
Y36500D01*
X62513D01*
X62406Y37315D01*
X61898Y38539D01*
X61091Y39591D01*
X60039Y40398D01*
X58815Y40906D01*
X58000Y41013D01*
D02*
G37*
G36*
X57000D02*
X56186Y40906D01*
X54961Y40398D01*
X53909Y39591D01*
X53102Y38539D01*
X52594Y37315D01*
X52487Y36500D01*
X57000D01*
Y41013D01*
D02*
G37*
G36*
X38000D02*
Y36500D01*
X42513D01*
X42406Y37315D01*
X41898Y38539D01*
X41091Y39591D01*
X40039Y40398D01*
X38814Y40906D01*
X38000Y41013D01*
D02*
G37*
G36*
X37000D02*
X36186Y40906D01*
X34961Y40398D01*
X33909Y39591D01*
X33102Y38539D01*
X32594Y37315D01*
X32487Y36500D01*
X37000D01*
Y41013D01*
D02*
G37*
G36*
X164421Y39500D02*
X161000D01*
Y36079D01*
X161532Y36149D01*
X162493Y36547D01*
X163319Y37181D01*
X163953Y38007D01*
X164351Y38968D01*
X164421Y39500D01*
D02*
G37*
G36*
X160000D02*
X156579D01*
X156649Y38968D01*
X157047Y38007D01*
X157681Y37181D01*
X158507Y36547D01*
X159468Y36149D01*
X160000Y36079D01*
Y39500D01*
D02*
G37*
G36*
X62513Y35500D02*
X58000D01*
Y30987D01*
X58815Y31094D01*
X60039Y31602D01*
X61091Y32409D01*
X61898Y33461D01*
X62406Y34686D01*
X62513Y35500D01*
D02*
G37*
G36*
X57000D02*
X52487D01*
X52594Y34686D01*
X53102Y33461D01*
X53909Y32409D01*
X54961Y31602D01*
X56186Y31094D01*
X57000Y30987D01*
Y35500D01*
D02*
G37*
G36*
X42513D02*
X38000D01*
Y30987D01*
X38814Y31094D01*
X40039Y31602D01*
X41091Y32409D01*
X41898Y33461D01*
X42406Y34686D01*
X42513Y35500D01*
D02*
G37*
G36*
X37000D02*
X32487D01*
X32594Y34686D01*
X33102Y33461D01*
X33909Y32409D01*
X34961Y31602D01*
X36186Y31094D01*
X37000Y30987D01*
Y35500D01*
D02*
G37*
G36*
X199500Y29526D02*
X198717Y29423D01*
X197987Y29120D01*
X197360Y28640D01*
X196879Y28013D01*
X196675Y27520D01*
X159000D01*
X158610Y27442D01*
X158279Y27221D01*
X152232Y21174D01*
X152011Y20843D01*
X151933Y20453D01*
Y18453D01*
X147047D01*
Y11547D01*
X153953D01*
Y17354D01*
X153972Y17453D01*
Y20030D01*
X159422Y25480D01*
X196675D01*
X196879Y24987D01*
X197360Y24360D01*
X197987Y23879D01*
X198717Y23577D01*
X199500Y23474D01*
X200283Y23577D01*
X201013Y23879D01*
X201640Y24360D01*
X202120Y24987D01*
X202423Y25717D01*
X202526Y26500D01*
X202423Y27283D01*
X202120Y28013D01*
X201640Y28640D01*
X201013Y29120D01*
X200283Y29423D01*
X199500Y29526D01*
D02*
G37*
G36*
X52035Y30535D02*
X42965D01*
Y21465D01*
X52035D01*
Y30535D01*
D02*
G37*
G36*
X324000Y23520D02*
Y20000D01*
X327520D01*
X327447Y20558D01*
X327039Y21543D01*
X326389Y22389D01*
X325543Y23039D01*
X324558Y23447D01*
X324000Y23520D01*
D02*
G37*
G36*
X323000D02*
X322442Y23447D01*
X321457Y23039D01*
X320611Y22389D01*
X319961Y21543D01*
X319553Y20558D01*
X319480Y20000D01*
X323000D01*
Y23520D01*
D02*
G37*
G36*
X282000Y23020D02*
Y19500D01*
X285520D01*
X285447Y20058D01*
X285039Y21043D01*
X284389Y21889D01*
X283543Y22539D01*
X282558Y22947D01*
X282000Y23020D01*
D02*
G37*
G36*
X281000D02*
X280442Y22947D01*
X279457Y22539D01*
X278611Y21889D01*
X277961Y21043D01*
X277553Y20058D01*
X277480Y19500D01*
X281000D01*
Y23020D01*
D02*
G37*
G36*
X58000Y21013D02*
Y16500D01*
X62513D01*
X62406Y17314D01*
X61898Y18539D01*
X61091Y19591D01*
X60039Y20398D01*
X58815Y20906D01*
X58000Y21013D01*
D02*
G37*
G36*
X57000D02*
X56186Y20906D01*
X54961Y20398D01*
X53909Y19591D01*
X53102Y18539D01*
X52594Y17314D01*
X52487Y16500D01*
X57000D01*
Y21013D01*
D02*
G37*
G36*
X38000D02*
Y16500D01*
X42513D01*
X42406Y17314D01*
X41898Y18539D01*
X41091Y19591D01*
X40039Y20398D01*
X38814Y20906D01*
X38000Y21013D01*
D02*
G37*
G36*
X37000D02*
X36186Y20906D01*
X34961Y20398D01*
X33909Y19591D01*
X33102Y18539D01*
X32594Y17314D01*
X32487Y16500D01*
X37000D01*
Y21013D01*
D02*
G37*
G36*
X230000Y19421D02*
Y16000D01*
X233421D01*
X233351Y16532D01*
X232953Y17493D01*
X232319Y18319D01*
X231493Y18953D01*
X230532Y19351D01*
X230000Y19421D01*
D02*
G37*
G36*
X229000D02*
X228468Y19351D01*
X227507Y18953D01*
X226681Y18319D01*
X226047Y17493D01*
X225649Y16532D01*
X225579Y16000D01*
X229000D01*
Y19421D01*
D02*
G37*
G36*
X317051Y23051D02*
X309949D01*
Y15949D01*
X317051D01*
Y23051D01*
D02*
G37*
G36*
X161000Y18921D02*
Y15500D01*
X164421D01*
X164351Y16032D01*
X163953Y16993D01*
X163319Y17819D01*
X162493Y18453D01*
X161532Y18851D01*
X161000Y18921D01*
D02*
G37*
G36*
X160000D02*
X159468Y18851D01*
X158507Y18453D01*
X157681Y17819D01*
X157047Y16993D01*
X156649Y16032D01*
X156579Y15500D01*
X160000D01*
Y18921D01*
D02*
G37*
G36*
X327520Y19000D02*
X324000D01*
Y15480D01*
X324558Y15553D01*
X325543Y15961D01*
X326389Y16611D01*
X327039Y17457D01*
X327447Y18442D01*
X327520Y19000D01*
D02*
G37*
G36*
X323000D02*
X319480D01*
X319553Y18442D01*
X319961Y17457D01*
X320611Y16611D01*
X321457Y15961D01*
X322442Y15553D01*
X323000Y15480D01*
Y19000D01*
D02*
G37*
G36*
X275051Y22551D02*
X267949D01*
Y15449D01*
X275051D01*
Y22551D01*
D02*
G37*
G36*
X291500Y22582D02*
X290573Y22460D01*
X289709Y22102D01*
X288967Y21533D01*
X288398Y20791D01*
X288040Y19927D01*
X287918Y19000D01*
X288040Y18073D01*
X288398Y17209D01*
X288967Y16467D01*
X289709Y15898D01*
X290573Y15540D01*
X291500Y15418D01*
X292427Y15540D01*
X293291Y15898D01*
X294033Y16467D01*
X294602Y17209D01*
X294960Y18073D01*
X295082Y19000D01*
X294960Y19927D01*
X294602Y20791D01*
X294033Y21533D01*
X293291Y22102D01*
X292427Y22460D01*
X291500Y22582D01*
D02*
G37*
G36*
X285520Y18500D02*
X282000D01*
Y14980D01*
X282558Y15053D01*
X283543Y15461D01*
X284389Y16111D01*
X285039Y16957D01*
X285447Y17942D01*
X285520Y18500D01*
D02*
G37*
G36*
X281000D02*
X277480D01*
X277553Y17942D01*
X277961Y16957D01*
X278611Y16111D01*
X279457Y15461D01*
X280442Y15053D01*
X281000Y14980D01*
Y18500D01*
D02*
G37*
G36*
X222953Y18953D02*
X216047D01*
Y12047D01*
X222953D01*
Y18953D01*
D02*
G37*
G36*
X239500Y18982D02*
X238599Y18864D01*
X237759Y18516D01*
X237037Y17963D01*
X236484Y17241D01*
X236136Y16401D01*
X236017Y15500D01*
X236136Y14599D01*
X236484Y13759D01*
X237037Y13037D01*
X237759Y12484D01*
X238599Y12136D01*
X239500Y12017D01*
X240401Y12136D01*
X241241Y12484D01*
X241963Y13037D01*
X242516Y13759D01*
X242864Y14599D01*
X242983Y15500D01*
X242864Y16401D01*
X242516Y17241D01*
X241963Y17963D01*
X241241Y18516D01*
X240401Y18864D01*
X239500Y18982D01*
D02*
G37*
G36*
X233421Y15000D02*
X230000D01*
Y11579D01*
X230532Y11649D01*
X231493Y12047D01*
X232319Y12681D01*
X232953Y13507D01*
X233351Y14468D01*
X233421Y15000D01*
D02*
G37*
G36*
X229000D02*
X225579D01*
X225649Y14468D01*
X226047Y13507D01*
X226681Y12681D01*
X227507Y12047D01*
X228468Y11649D01*
X229000Y11579D01*
Y15000D01*
D02*
G37*
G36*
X180500Y18483D02*
X179599Y18364D01*
X178759Y18016D01*
X178038Y17462D01*
X177484Y16741D01*
X177136Y15901D01*
X177017Y15000D01*
X177136Y14099D01*
X177484Y13259D01*
X178038Y12538D01*
X178759Y11984D01*
X179599Y11636D01*
X180500Y11518D01*
X181401Y11636D01*
X182241Y11984D01*
X182963Y12538D01*
X183516Y13259D01*
X183864Y14099D01*
X183983Y15000D01*
X183864Y15901D01*
X183516Y16741D01*
X182963Y17462D01*
X182241Y18016D01*
X181401Y18364D01*
X180500Y18483D01*
D02*
G37*
G36*
X170500D02*
X169599Y18364D01*
X168759Y18016D01*
X168037Y17462D01*
X167484Y16741D01*
X167136Y15901D01*
X167017Y15000D01*
X167136Y14099D01*
X167484Y13259D01*
X168037Y12538D01*
X168759Y11984D01*
X169599Y11636D01*
X170500Y11518D01*
X171401Y11636D01*
X172241Y11984D01*
X172962Y12538D01*
X173516Y13259D01*
X173864Y14099D01*
X173983Y15000D01*
X173864Y15901D01*
X173516Y16741D01*
X172962Y17462D01*
X172241Y18016D01*
X171401Y18364D01*
X170500Y18483D01*
D02*
G37*
G36*
X164421Y14500D02*
X161000D01*
Y11079D01*
X161532Y11149D01*
X162493Y11547D01*
X163319Y12181D01*
X163953Y13007D01*
X164351Y13968D01*
X164421Y14500D01*
D02*
G37*
G36*
X160000D02*
X156579D01*
X156649Y13968D01*
X157047Y13007D01*
X157681Y12181D01*
X158507Y11547D01*
X159468Y11149D01*
X160000Y11079D01*
Y14500D01*
D02*
G37*
G36*
X62513Y15500D02*
X58000D01*
Y10987D01*
X58815Y11094D01*
X60039Y11602D01*
X61091Y12409D01*
X61898Y13461D01*
X62406Y14685D01*
X62513Y15500D01*
D02*
G37*
G36*
X57000D02*
X52487D01*
X52594Y14685D01*
X53102Y13461D01*
X53909Y12409D01*
X54961Y11602D01*
X56186Y11094D01*
X57000Y10987D01*
Y15500D01*
D02*
G37*
G36*
X42513D02*
X38000D01*
Y10987D01*
X38814Y11094D01*
X40039Y11602D01*
X41091Y12409D01*
X41898Y13461D01*
X42406Y14685D01*
X42513Y15500D01*
D02*
G37*
G36*
X37000D02*
X32487D01*
X32594Y14685D01*
X33102Y13461D01*
X33909Y12409D01*
X34961Y11602D01*
X36186Y11094D01*
X37000Y10987D01*
Y15500D01*
D02*
G37*
%LPD*%
G36*
X202077Y169518D02*
X167482Y134924D01*
X167020Y135115D01*
Y146578D01*
X174422Y153980D01*
X174500D01*
X174890Y154058D01*
X175221Y154279D01*
X190922Y169980D01*
X201885D01*
X202077Y169518D01*
D02*
G37*
G36*
X218577Y168018D02*
X208292Y157734D01*
X208071Y157404D01*
X207994Y157013D01*
Y147436D01*
X195278Y134720D01*
X194775Y134924D01*
X194698Y135508D01*
X194396Y136238D01*
X193915Y136864D01*
X193288Y137345D01*
X192558Y137648D01*
X191775Y137751D01*
X190992Y137648D01*
X190262Y137345D01*
X189636Y136864D01*
X189155Y136238D01*
X188955Y135757D01*
X180080D01*
X179870Y136263D01*
X179390Y136890D01*
X178763Y137371D01*
X178033Y137673D01*
X177250Y137776D01*
X176467Y137673D01*
X175737Y137371D01*
X175110Y136890D01*
X174629Y136263D01*
X174327Y135533D01*
X174224Y134750D01*
X174327Y133967D01*
X174629Y133237D01*
X175110Y132610D01*
X175737Y132130D01*
X176467Y131827D01*
X177250Y131724D01*
X178033Y131827D01*
X178763Y132130D01*
X179390Y132610D01*
X179870Y133237D01*
X180070Y133718D01*
X188945D01*
X189155Y133212D01*
X189513Y132745D01*
X189302Y132245D01*
X181101D01*
X180711Y132167D01*
X180380Y131946D01*
X173983Y125549D01*
X173611Y125703D01*
X172828Y125806D01*
X172045Y125703D01*
X171315Y125400D01*
X170688Y124920D01*
X170207Y124293D01*
X169905Y123563D01*
X169802Y122780D01*
X169905Y121997D01*
X170207Y121267D01*
X170688Y120640D01*
X171315Y120159D01*
X172045Y119857D01*
X172828Y119754D01*
X173611Y119857D01*
X173834Y119949D01*
X174292Y119598D01*
X174250Y119280D01*
X174353Y118497D01*
X174420Y118335D01*
X174009Y118020D01*
X173513Y118401D01*
X172783Y118703D01*
X172000Y118806D01*
X171217Y118703D01*
X170487Y118401D01*
X169860Y117920D01*
X169712Y117727D01*
X169390Y117942D01*
X169000Y118020D01*
X167178D01*
X165823Y119375D01*
X166027Y119878D01*
X166611Y119955D01*
X167341Y120257D01*
X167967Y120738D01*
X168448Y121365D01*
X168751Y122095D01*
X168854Y122878D01*
X168751Y123661D01*
X168448Y124391D01*
X168020Y124950D01*
Y132578D01*
X203922Y168480D01*
X218385D01*
X218577Y168018D01*
D02*
G37*
G36*
X191301Y129743D02*
X180848Y119289D01*
X180300D01*
X180198Y120063D01*
X179896Y120793D01*
X179415Y121420D01*
X178788Y121900D01*
X178059Y122203D01*
X177276Y122306D01*
X176492Y122203D01*
X176270Y122110D01*
X175812Y122462D01*
X175854Y122780D01*
X175751Y123563D01*
X175496Y124178D01*
X181523Y130205D01*
X191110D01*
X191301Y129743D01*
D02*
G37*
G36*
X184919Y109844D02*
X184874Y109500D01*
X184977Y108717D01*
X185279Y107987D01*
X185638Y107520D01*
X185426Y107020D01*
X173936D01*
X171437Y109519D01*
X171628Y109980D01*
X183950D01*
X184340Y110058D01*
X184453Y110133D01*
X184919Y109844D01*
D02*
G37*
G36*
X179570Y91779D02*
X179901Y91558D01*
X180094Y91520D01*
X180045Y91020D01*
X170922D01*
X162543Y99399D01*
X162637Y100111D01*
X162570Y100615D01*
X162578Y100639D01*
X162972Y101033D01*
X162996Y101040D01*
X163500Y100974D01*
X164283Y101077D01*
X165013Y101380D01*
X165640Y101860D01*
X166121Y102487D01*
X166325Y102980D01*
X168369D01*
X179570Y91779D01*
D02*
G37*
G36*
X211083Y96475D02*
X210904Y95947D01*
X210717Y95923D01*
X209987Y95621D01*
X209360Y95140D01*
X208879Y94513D01*
X208577Y93783D01*
X208477Y93020D01*
X198473D01*
X198262Y93520D01*
X198620Y93987D01*
X198923Y94717D01*
X199026Y95500D01*
X198923Y96283D01*
X198620Y97013D01*
X198140Y97640D01*
X197513Y98120D01*
X196783Y98423D01*
X196000Y98526D01*
X195217Y98423D01*
X194487Y98120D01*
X193860Y97640D01*
X193379Y97013D01*
X193175Y96520D01*
X182314D01*
X174315Y104518D01*
X174507Y104980D01*
X202578D01*
X211083Y96475D01*
D02*
G37*
G36*
X209360Y90860D02*
X209987Y90380D01*
X210717Y90077D01*
X211155Y90020D01*
X211122Y89520D01*
X193631D01*
X192670Y90480D01*
X192877Y90980D01*
X209268D01*
X209360Y90860D01*
D02*
G37*
G36*
X270053Y154904D02*
X270077Y154717D01*
X270282Y154224D01*
X238279Y122221D01*
X238058Y121890D01*
X237980Y121500D01*
Y91325D01*
X237487Y91120D01*
X236860Y90640D01*
X236380Y90013D01*
X236077Y89283D01*
X235974Y88500D01*
X236052Y87908D01*
X235595Y87629D01*
X235513Y87691D01*
X235020Y87896D01*
Y120578D01*
X269525Y155083D01*
X270053Y154904D01*
D02*
G37*
G36*
X212879Y86987D02*
X213238Y86520D01*
X213027Y86020D01*
X195010D01*
X194011Y87019D01*
X194202Y87480D01*
X212675D01*
X212879Y86987D01*
D02*
G37*
%LPC*%
G36*
X198500Y148464D02*
Y145500D01*
X201464D01*
X201410Y145914D01*
X201057Y146765D01*
X200496Y147496D01*
X199765Y148057D01*
X198914Y148410D01*
X198500Y148464D01*
D02*
G37*
G36*
X197500D02*
X197086Y148410D01*
X196235Y148057D01*
X195504Y147496D01*
X194943Y146765D01*
X194590Y145914D01*
X194536Y145500D01*
X197500D01*
Y148464D01*
D02*
G37*
G36*
X201464Y144500D02*
X198500D01*
Y141536D01*
X198914Y141590D01*
X199765Y141943D01*
X200496Y142504D01*
X201057Y143235D01*
X201410Y144086D01*
X201464Y144500D01*
D02*
G37*
G36*
X197500D02*
X194536D01*
X194590Y144086D01*
X194943Y143235D01*
X195504Y142504D01*
X196235Y141943D01*
X197086Y141590D01*
X197500Y141536D01*
Y144500D01*
D02*
G37*
%LPD*%
D13*
X172532Y69080D02*
X217580D01*
X220000Y71500D01*
X215000Y94000D02*
X244762Y64238D01*
X237086Y61086D02*
Y61914D01*
X194588Y85000D02*
X214000D01*
X215000Y94000D02*
Y94450D01*
X212950Y96500D02*
X215000Y94450D01*
X214000Y85000D02*
X237086Y61914D01*
X244762Y64238D02*
X288762D01*
X236000Y60000D02*
X237086Y61086D01*
X106500Y127500D02*
X113500Y120500D01*
X101000Y127500D02*
X106500D01*
X130000Y178015D02*
X141986Y166029D01*
X130000Y178015D02*
Y179500D01*
X160389Y100111D02*
X170500Y90000D01*
X191709D01*
X193209Y88500D02*
X215500D01*
X178000D02*
X191087D01*
X191709Y90000D02*
X193209Y88500D01*
X174500Y85000D02*
X178000Y88500D01*
X191087D02*
X194588Y85000D01*
X153217Y76283D02*
Y77365D01*
X155500Y79648D01*
Y83500D01*
X158000Y62500D02*
X180500Y40000D01*
X158000Y62500D02*
Y93000D01*
X148000Y87000D02*
X152000D01*
X155500Y83500D01*
X144500Y106000D02*
X155000Y116500D01*
X144500Y70266D02*
X146000Y68766D01*
X144500Y70266D02*
Y106000D01*
X146000Y49500D02*
Y68766D01*
X44500Y157000D02*
X49000Y152500D01*
X143500D01*
X149000Y147000D01*
Y146500D02*
Y147000D01*
X234000Y121000D02*
X269500Y156500D01*
X272000Y159000D02*
X284000Y171000D01*
X269500Y156950D02*
X271550Y159000D01*
X272000D01*
X269500Y156500D02*
Y156950D01*
X239000Y88500D02*
Y121500D01*
X273000Y155500D01*
X234000Y85071D02*
Y121000D01*
X223681Y104319D02*
X230000Y98000D01*
X208181Y104319D02*
X223681D01*
X203000Y106000D02*
X212500Y96500D01*
X212950D01*
X192250Y92000D02*
X210500D01*
X211500Y93000D01*
X173513Y106000D02*
X203000D01*
X159611Y100111D02*
X160389D01*
X180291Y92500D02*
X191750D01*
X192250Y92000D01*
X181892Y95500D02*
X196000D01*
X168791Y104000D02*
X180291Y92500D01*
X163500Y104000D02*
X168791D01*
X288762Y64238D02*
X333500Y19500D01*
X236000Y53000D02*
Y60000D01*
X166756Y117000D02*
X169000D01*
X171235Y116545D02*
X172000Y115780D01*
X169455Y116545D02*
X171235D01*
X169000Y117000D02*
X169455Y116545D01*
X172828Y122780D02*
Y122952D01*
X181270Y118270D02*
X192725Y129725D01*
X178000Y118270D02*
X181270D01*
X177276Y118994D02*
Y119280D01*
Y118994D02*
X178000Y118270D01*
X162328Y121428D02*
X166756Y117000D01*
X167000Y123464D02*
Y133000D01*
X144770Y128963D02*
X150550D01*
X149537Y130463D02*
X151171D01*
X162328Y130449D02*
X166000Y134121D01*
X148000Y124000D02*
X153392D01*
X151171Y130463D02*
X170635Y111000D01*
X165828Y122878D02*
X166413Y123464D01*
X162328Y121428D02*
Y130449D01*
X172828Y122952D02*
X181101Y131225D01*
X144500Y135500D02*
X149537Y130463D01*
X166413Y123464D02*
X167000D01*
X153392Y124000D02*
X181892Y95500D01*
X150550Y128963D02*
X173513Y106000D01*
X170635Y111000D02*
X183950D01*
X167000Y133000D02*
X203500Y169500D01*
X145500Y121500D02*
X148000Y124000D01*
X142500Y135500D02*
X144500D01*
X166000Y134121D02*
Y147000D01*
X203500Y169500D02*
X229379D01*
X177250Y134750D02*
X177263Y134737D01*
X191763D02*
X191775Y134725D01*
X177263Y134737D02*
X191763D01*
X174000Y155000D02*
X174500D01*
X257500Y233386D02*
X275114Y251000D01*
X257500Y202000D02*
Y233386D01*
X226500Y171000D02*
X257500Y202000D01*
X166000Y147000D02*
X174000Y155000D01*
X174500D02*
X190500Y171000D01*
X226500D01*
X262500Y228386D02*
X275114Y241000D01*
X262500Y202621D02*
Y228386D01*
X229379Y169500D02*
X262500Y202621D01*
X275114Y210993D02*
Y211000D01*
X230121Y166000D02*
X275114Y210993D01*
X220121Y166000D02*
X230121D01*
X214074Y159953D02*
X220121Y166000D01*
X214074Y157832D02*
Y159953D01*
X210621Y154379D02*
X214074Y157832D01*
X210621Y146121D02*
Y154379D01*
X181101Y131225D02*
X193225D01*
X209013Y147013D01*
Y157013D01*
X194225Y129725D02*
X210621Y146121D01*
X192725Y129725D02*
X194225D01*
X220000Y168000D02*
X230000D01*
X209013Y157013D02*
X220000Y168000D01*
X204720Y133405D02*
X223406D01*
X192315Y121000D02*
X204720Y133405D01*
X189000Y121000D02*
X192315D01*
X185950Y113000D02*
X215622D01*
X187899Y109500D02*
X188400Y110000D01*
X215622Y113000D02*
X221484Y118862D01*
X183950Y111000D02*
X185950Y113000D01*
X188400Y110000D02*
X202500D01*
X208181Y104319D01*
X266500Y204500D02*
Y222386D01*
X275114Y231000D02*
X275114D01*
X266500Y222386D02*
X275114Y231000D01*
X230000Y168000D02*
X266500Y204500D01*
X275114Y221000D02*
X276500D01*
X284000Y213500D01*
Y171000D02*
Y213500D01*
X153500Y145000D02*
X154500D01*
X148500Y140000D02*
X153500Y145000D01*
X115791Y140000D02*
X148500D01*
X108791Y147000D02*
X115791Y140000D01*
X67500Y147000D02*
X108791D01*
X268000Y178000D02*
Y183886D01*
X223406Y133405D02*
X268000Y178000D01*
Y183886D02*
X275114Y191000D01*
X139500Y109000D02*
X151000Y120500D01*
X139500Y53500D02*
Y109000D01*
X159000Y26500D02*
X199500D01*
X152953Y20453D02*
X159000Y26500D01*
X150500Y15000D02*
X152953Y17453D01*
Y20453D01*
X130000Y50000D02*
X135500Y44500D01*
X130000Y50000D02*
Y113500D01*
X135500Y44500D02*
X166000D01*
X119500Y112500D02*
X142500Y135500D01*
X166000Y44500D02*
X170500Y40000D01*
X327264Y143236D02*
X328500Y142000D01*
X327264Y212264D02*
X331000Y216000D01*
X327264Y143236D02*
Y212264D01*
X328500Y133972D02*
Y142000D01*
X328280Y133752D02*
X328500Y133972D01*
X331000Y206000D02*
X339000Y198000D01*
X338500Y132000D02*
X339000Y132500D01*
Y198000D01*
D74*
X321000Y196000D02*
D03*
X331000D02*
D03*
X321000Y206000D02*
D03*
X331000D02*
D03*
X321000Y216000D02*
D03*
X331000D02*
D03*
X321000Y226000D02*
D03*
X331000D02*
D03*
X321000Y236000D02*
D03*
D75*
X331000D02*
D03*
D77*
X235114Y201000D02*
D03*
X245114D02*
D03*
X235114Y211000D02*
D03*
X245114D02*
D03*
X235114Y221000D02*
D03*
X245114D02*
D03*
X235114Y231000D02*
D03*
D78*
X245114D02*
D03*
D82*
X245500Y109500D02*
X279500Y75500D01*
D85*
X150500Y40000D02*
D03*
X219500Y15500D02*
D03*
X150500Y15000D02*
D03*
D86*
X160500Y40000D02*
D03*
X170500D02*
D03*
X180500D02*
D03*
X44500Y147000D02*
D03*
Y157000D02*
D03*
Y167000D02*
D03*
X239500Y15500D02*
D03*
X229500D02*
D03*
X180500Y15000D02*
D03*
X170500D02*
D03*
X160500D02*
D03*
D87*
X46000Y63000D02*
D03*
X46333Y49834D02*
D03*
X87000Y80500D02*
D03*
X275114Y181000D02*
D03*
Y191000D02*
D03*
Y211000D02*
D03*
Y231000D02*
D03*
Y241000D02*
D03*
Y221000D02*
D03*
Y201000D02*
D03*
D88*
X44500Y137000D02*
D03*
D89*
X47500Y252500D02*
D03*
Y26000D02*
D03*
D90*
X37500Y262500D02*
D03*
Y242500D02*
D03*
X57500D02*
D03*
Y262500D02*
D03*
X37500Y36000D02*
D03*
Y16000D02*
D03*
X57500D02*
D03*
Y36000D02*
D03*
D91*
X221484Y138862D02*
D03*
Y148862D02*
D03*
Y128862D02*
D03*
Y118862D02*
D03*
Y108862D02*
D03*
D92*
Y158862D02*
D03*
D93*
X333500Y19500D02*
D03*
X323500D02*
D03*
X291500Y19000D02*
D03*
X281500D02*
D03*
D94*
X313500Y19500D02*
D03*
X271500Y19000D02*
D03*
D95*
X275114Y251000D02*
D03*
D96*
X279500Y75500D02*
D03*
X220000Y71500D02*
D03*
X172532Y69080D02*
D03*
X101000Y127500D02*
D03*
X113500Y120500D02*
D03*
X153618Y257840D02*
D03*
X130000Y179500D02*
D03*
X141986Y166029D02*
D03*
X165500Y76500D02*
D03*
X153217Y76283D02*
D03*
X148000Y87000D02*
D03*
X198000Y145000D02*
D03*
X174984Y78532D02*
D03*
X136000Y87500D02*
D03*
X94000Y106000D02*
D03*
X112801Y162447D02*
D03*
X162018Y178230D02*
D03*
X183500Y201000D02*
D03*
X273000Y155500D02*
D03*
X230000Y98000D02*
D03*
X239000Y88500D02*
D03*
X234000Y85071D02*
D03*
X211500Y93000D02*
D03*
X215500Y88500D02*
D03*
X196000Y95500D02*
D03*
X158000Y93000D02*
D03*
X163500Y104000D02*
D03*
X159611Y100111D02*
D03*
X236000Y53000D02*
D03*
X245500Y109500D02*
D03*
X172000Y115780D02*
D03*
X172828Y122780D02*
D03*
X177276Y119280D02*
D03*
X165828Y122878D02*
D03*
X177250Y134750D02*
D03*
X189000Y121000D02*
D03*
X187899Y109500D02*
D03*
X191775Y134725D02*
D03*
X154500Y145000D02*
D03*
X67500Y147000D02*
D03*
X149000Y146500D02*
D03*
X174500Y85000D02*
D03*
X145500Y121500D02*
D03*
X151000Y120500D02*
D03*
X144770Y128963D02*
D03*
X155000Y116500D02*
D03*
X199500Y26500D02*
D03*
X139500Y53500D02*
D03*
X130000Y113500D02*
D03*
X328280Y133752D02*
D03*
X338500Y132000D02*
D03*
X146000Y49500D02*
D03*
X119500Y112500D02*
D03*
X144500Y135500D02*
D03*
M02*
