G04*
G04 #@! TF.GenerationSoftware,Altium Limited,Altium Designer,20.2.6 (244)*
G04*
G04 Layer_Color=32896*
%FSLAX25Y25*%
%MOIN*%
G70*
G04*
G04 #@! TF.SameCoordinates,3B791BB4-AEC8-405A-9348-557AA33B983F*
G04*
G04*
G04 #@! TF.FilePolarity,Positive*
G04*
G01*
G75*
%ADD10C,0.00984*%
%ADD11C,0.00787*%
%ADD13C,0.01000*%
%ADD97C,0.00600*%
D10*
X331492Y258028D02*
G03*
X331492Y258028I-492J0D01*
G01*
X245606Y238612D02*
G03*
X245606Y238612I-492J0D01*
G01*
D11*
X307949Y255665D02*
X342280D01*
Y176335D02*
Y255665D01*
X307949Y176335D02*
X342280D01*
X307949D02*
Y255665D01*
X269819Y175409D02*
X280410D01*
X269819D02*
Y256591D01*
X280410D01*
Y175409D02*
Y256591D01*
X229957Y236250D02*
X250272D01*
Y195750D02*
Y236250D01*
X229957Y195750D02*
X250272D01*
X229957D02*
Y236250D01*
D13*
X274814Y260500D02*
Y266498D01*
X271815D01*
X270815Y265498D01*
Y263499D01*
X271815Y262499D01*
X274814D01*
X268816Y266498D02*
X264817D01*
Y265498D01*
X268816Y261500D01*
Y260500D01*
X244013Y186002D02*
X242014D01*
X243013D01*
Y191000D01*
X242014Y192000D01*
X241014D01*
X240014Y191000D01*
X249011Y192000D02*
Y186002D01*
X246012Y189001D01*
X250011D01*
X314116Y267998D02*
X316115D01*
X315115D01*
Y263000D01*
X316115Y262000D01*
X317114D01*
X318114Y263000D01*
X312116Y266998D02*
X311116Y267998D01*
X309117D01*
X308117Y266998D01*
Y265999D01*
X309117Y264999D01*
X310117D01*
X309117D01*
X308117Y263999D01*
Y263000D01*
X309117Y262000D01*
X311116D01*
X312116Y263000D01*
D97*
X265089Y182496D02*
X264423Y181830D01*
Y180497D01*
X265089Y179830D01*
X265756D01*
X266422Y180497D01*
X267088Y179830D01*
X267755D01*
X268421Y180497D01*
Y181830D01*
X267755Y182496D01*
X267088D01*
X266422Y181830D01*
X265756Y182496D01*
X265089D01*
X266422Y181830D02*
Y180497D01*
X268421Y251472D02*
Y250139D01*
Y250806D01*
X264423D01*
X265089Y251472D01*
M02*
