G04*
G04 #@! TF.GenerationSoftware,Altium Limited,Altium Designer,20.2.6 (244)*
G04*
G04 Layer_Color=8421504*
%FSLAX25Y25*%
%MOIN*%
G70*
G04*
G04 #@! TF.SameCoordinates,3B791BB4-AEC8-405A-9348-557AA33B983F*
G04*
G04*
G04 #@! TF.FilePolarity,Positive*
G04*
G01*
G75*
%ADD14R,0.04331X0.04921*%
%ADD15R,0.04560X0.03985*%
%ADD16R,0.04921X0.04331*%
%ADD17R,0.04134X0.03543*%
%ADD18R,0.03740X0.03150*%
%ADD19R,0.03740X0.03347*%
%ADD20R,0.04449X0.09606*%
%ADD21R,0.06299X0.03937*%
%ADD22R,0.05118X0.07480*%
%ADD23R,0.13780X0.03937*%
%ADD24R,0.04724X0.01181*%
%ADD25R,0.01181X0.04724*%
%ADD26R,0.03347X0.02953*%
%ADD27R,0.03150X0.03150*%
%ADD28R,0.05000X0.02992*%
%ADD29R,0.02559X0.06890*%
%ADD30R,0.04331X0.02559*%
%ADD31R,0.03400X0.03788*%
%ADD32R,0.02362X0.03150*%
%ADD33R,0.03788X0.03400*%
%ADD34R,0.01322X0.04583*%
G04:AMPARAMS|DCode=35|XSize=45.83mil|YSize=13.22mil|CornerRadius=6.61mil|HoleSize=0mil|Usage=FLASHONLY|Rotation=270.000|XOffset=0mil|YOffset=0mil|HoleType=Round|Shape=RoundedRectangle|*
%AMROUNDEDRECTD35*
21,1,0.04583,0.00000,0,0,270.0*
21,1,0.03260,0.01322,0,0,270.0*
1,1,0.01322,0.00000,-0.01630*
1,1,0.01322,0.00000,0.01630*
1,1,0.01322,0.00000,0.01630*
1,1,0.01322,0.00000,-0.01630*
%
%ADD35ROUNDEDRECTD35*%
%ADD36R,0.03347X0.03740*%
%ADD37R,0.03347X0.03543*%
%ADD38R,0.04724X0.06299*%
%ADD39R,0.12992X0.06299*%
%ADD40R,0.03740X0.05512*%
%ADD41R,0.03543X0.04134*%
%ADD42R,0.03937X0.04134*%
%ADD43R,0.02047X0.01929*%
%ADD44R,0.03150X0.02362*%
G36*
X79260Y9866D02*
Y13016D01*
X83984D01*
Y12622D01*
X87528D01*
Y10260D01*
X83984D01*
Y9866D01*
X79260D01*
D02*
G37*
G36*
Y14197D02*
Y17346D01*
X83984D01*
Y16953D01*
X87528D01*
Y14591D01*
X83984D01*
Y14197D01*
X79260D01*
D02*
G37*
G36*
Y18528D02*
Y21677D01*
X83984D01*
Y21283D01*
X87528D01*
Y18921D01*
X83984D01*
Y18528D01*
X79260D01*
D02*
G37*
G36*
Y22858D02*
Y26008D01*
X83984D01*
Y25614D01*
X87528D01*
Y23252D01*
X83984D01*
Y22858D01*
X79260D01*
D02*
G37*
G36*
Y27189D02*
Y30339D01*
X83984D01*
Y29945D01*
X87528D01*
Y27583D01*
X83984D01*
Y27189D01*
X79260D01*
D02*
G37*
G36*
Y42150D02*
Y39000D01*
X83984D01*
Y39394D01*
X87528D01*
Y41756D01*
X83984D01*
Y42150D01*
X79260D01*
D02*
G37*
G36*
X136740Y9866D02*
Y13016D01*
X132016D01*
Y12622D01*
X128472D01*
Y10260D01*
X132016D01*
Y9866D01*
X136740D01*
D02*
G37*
G36*
Y14197D02*
Y17346D01*
X132016D01*
Y16953D01*
X128472D01*
Y14591D01*
X132016D01*
Y14197D01*
X136740D01*
D02*
G37*
G36*
Y18528D02*
Y21677D01*
X132016D01*
Y21283D01*
X128472D01*
Y18921D01*
X132016D01*
Y18528D01*
X136740D01*
D02*
G37*
G36*
Y22858D02*
Y26008D01*
X132016D01*
Y25614D01*
X128472D01*
Y23252D01*
X132016D01*
Y22858D01*
X136740D01*
D02*
G37*
G36*
Y27189D02*
Y30339D01*
X132016D01*
Y29945D01*
X128472D01*
Y27583D01*
X132016D01*
Y27189D01*
X136740D01*
D02*
G37*
G36*
Y42150D02*
Y39000D01*
X132016D01*
Y39394D01*
X128472D01*
Y41756D01*
X132016D01*
Y42150D01*
X136740D01*
D02*
G37*
G36*
X79260Y46480D02*
Y43331D01*
X83984D01*
Y43724D01*
X87528D01*
Y46087D01*
X83984D01*
Y46480D01*
X79260D01*
D02*
G37*
G36*
Y50811D02*
Y47661D01*
X83984D01*
Y48055D01*
X87528D01*
Y50417D01*
X83984D01*
Y50811D01*
X79260D01*
D02*
G37*
G36*
Y55142D02*
Y51992D01*
X83984D01*
Y52386D01*
X87528D01*
Y54748D01*
X83984D01*
Y55142D01*
X79260D01*
D02*
G37*
G36*
Y59472D02*
Y56323D01*
X83984D01*
Y56717D01*
X87528D01*
Y59079D01*
X83984D01*
Y59472D01*
X79260D01*
D02*
G37*
G36*
Y63803D02*
Y60654D01*
X83984D01*
Y61047D01*
X87528D01*
Y63410D01*
X83984D01*
Y63803D01*
X79260D01*
D02*
G37*
G36*
Y68134D02*
Y64984D01*
X83984D01*
Y65378D01*
X87528D01*
Y67740D01*
X83984D01*
Y68134D01*
X79260D01*
D02*
G37*
G36*
X136740Y46480D02*
Y43331D01*
X132016D01*
Y43724D01*
X128472D01*
Y46087D01*
X132016D01*
Y46480D01*
X136740D01*
D02*
G37*
G36*
Y50811D02*
Y47661D01*
X132016D01*
Y48055D01*
X128472D01*
Y50417D01*
X132016D01*
Y50811D01*
X136740D01*
D02*
G37*
G36*
Y55142D02*
Y51992D01*
X132016D01*
Y52386D01*
X128472D01*
Y54748D01*
X132016D01*
Y55142D01*
X136740D01*
D02*
G37*
G36*
Y59472D02*
Y56323D01*
X132016D01*
Y56717D01*
X128472D01*
Y59079D01*
X132016D01*
Y59472D01*
X136740D01*
D02*
G37*
G36*
Y63803D02*
Y60654D01*
X132016D01*
Y61047D01*
X128472D01*
Y63410D01*
X132016D01*
Y63803D01*
X136740D01*
D02*
G37*
G36*
Y68134D02*
Y64984D01*
X132016D01*
Y65378D01*
X128472D01*
Y67740D01*
X132016D01*
Y68134D01*
X136740D01*
D02*
G37*
D14*
X192984Y144516D02*
D03*
Y151209D02*
D03*
X121484Y160209D02*
D03*
Y153516D02*
D03*
X149000Y252847D02*
D03*
Y246153D02*
D03*
X125484Y120516D02*
D03*
Y127209D02*
D03*
X74878Y35906D02*
D03*
Y29214D02*
D03*
D15*
X168728Y91362D02*
D03*
X175240D02*
D03*
D16*
X139460Y94085D02*
D03*
X146153D02*
D03*
X135638Y167862D02*
D03*
X142331D02*
D03*
X105291Y99362D02*
D03*
X111984D02*
D03*
D17*
X158000Y170146D02*
D03*
Y175854D02*
D03*
D18*
X149984Y174921D02*
D03*
Y169803D02*
D03*
D19*
X129484Y153705D02*
D03*
Y159020D02*
D03*
X203024Y191429D02*
D03*
Y186115D02*
D03*
D20*
X348500Y90071D02*
D03*
X338500D02*
D03*
X328500D02*
D03*
X318500D02*
D03*
X308500D02*
D03*
Y123929D02*
D03*
X318500D02*
D03*
X328500D02*
D03*
X338500D02*
D03*
X348500D02*
D03*
X290000D02*
D03*
X280000D02*
D03*
X270000D02*
D03*
X260000D02*
D03*
X250000D02*
D03*
Y90071D02*
D03*
X260000D02*
D03*
X270000D02*
D03*
X280000D02*
D03*
X290000D02*
D03*
D21*
X58945Y69890D02*
D03*
Y56110D02*
D03*
X68000Y63000D02*
D03*
D22*
X105811Y134063D02*
D03*
Y146661D02*
D03*
X84158Y134063D02*
D03*
Y146661D02*
D03*
D23*
X135512Y202441D02*
D03*
Y210315D02*
D03*
Y218189D02*
D03*
Y226063D02*
D03*
Y233937D02*
D03*
Y241811D02*
D03*
Y249685D02*
D03*
Y257559D02*
D03*
X74488D02*
D03*
Y249685D02*
D03*
Y241811D02*
D03*
Y233937D02*
D03*
Y226063D02*
D03*
Y218189D02*
D03*
Y210315D02*
D03*
Y202441D02*
D03*
D24*
X137362Y147764D02*
D03*
Y145795D02*
D03*
Y143827D02*
D03*
Y141858D02*
D03*
Y139890D02*
D03*
Y137921D02*
D03*
Y135953D02*
D03*
Y133984D02*
D03*
Y132016D02*
D03*
Y130047D02*
D03*
Y128079D02*
D03*
Y126110D02*
D03*
Y124142D02*
D03*
Y122173D02*
D03*
Y120205D02*
D03*
Y118236D02*
D03*
X182638D02*
D03*
Y120205D02*
D03*
Y122173D02*
D03*
Y124142D02*
D03*
Y126110D02*
D03*
Y128079D02*
D03*
Y130047D02*
D03*
Y132016D02*
D03*
Y133984D02*
D03*
Y135953D02*
D03*
Y137921D02*
D03*
Y139890D02*
D03*
Y141858D02*
D03*
Y143827D02*
D03*
Y145795D02*
D03*
Y147764D02*
D03*
D25*
X145236Y110362D02*
D03*
X147205D02*
D03*
X149173D02*
D03*
X151142D02*
D03*
X153110D02*
D03*
X155079D02*
D03*
X157047D02*
D03*
X159016D02*
D03*
X160984D02*
D03*
X162953D02*
D03*
X164921D02*
D03*
X166890D02*
D03*
X168858D02*
D03*
X170827D02*
D03*
X172795D02*
D03*
X174764D02*
D03*
Y155638D02*
D03*
X172795D02*
D03*
X170827D02*
D03*
X168858D02*
D03*
X166890D02*
D03*
X164921D02*
D03*
X162953D02*
D03*
X160984D02*
D03*
X159016D02*
D03*
X157047D02*
D03*
X155079D02*
D03*
X153110D02*
D03*
X151142D02*
D03*
X149173D02*
D03*
X147205D02*
D03*
X145236D02*
D03*
D26*
X115484Y128862D02*
D03*
Y133783D02*
D03*
Y147402D02*
D03*
Y152323D02*
D03*
D27*
X158547Y164000D02*
D03*
X164452D02*
D03*
X104453Y78500D02*
D03*
X98548D02*
D03*
D28*
X183441Y62000D02*
D03*
Y67000D02*
D03*
X153559D02*
D03*
Y62000D02*
D03*
D29*
X206000Y28976D02*
D03*
X211000D02*
D03*
X216000D02*
D03*
X221000D02*
D03*
X206000Y51024D02*
D03*
X211000D02*
D03*
X216000D02*
D03*
X221000D02*
D03*
D30*
X192276Y59260D02*
D03*
Y66740D02*
D03*
X201724D02*
D03*
Y63000D02*
D03*
Y59260D02*
D03*
D31*
X236128Y41500D02*
D03*
X241872D02*
D03*
D32*
X241559Y49000D02*
D03*
X236441D02*
D03*
D33*
X210500Y60628D02*
D03*
Y66372D02*
D03*
D34*
X242059Y33532D02*
D03*
D35*
X236941D02*
D03*
X239500Y27468D02*
D03*
D36*
X222657Y66000D02*
D03*
X217342D02*
D03*
X186367Y190772D02*
D03*
X191682D02*
D03*
D37*
X221362Y59000D02*
D03*
X216638D02*
D03*
D38*
X184445Y199902D02*
D03*
X193500D02*
D03*
X202555D02*
D03*
D39*
X193500Y225098D02*
D03*
D40*
X100815Y112862D02*
D03*
X117154D02*
D03*
D41*
X99146Y86500D02*
D03*
X104854D02*
D03*
D42*
X67378Y22607D02*
D03*
Y28513D02*
D03*
D43*
X70378Y17749D02*
D03*
Y14560D02*
D03*
D44*
X74878Y23619D02*
D03*
Y18501D02*
D03*
M02*
