M48
;Layer_Color=9474304
;FILE_FORMAT=2:5
INCH,LZ
;TYPE=PLATED
T1F00S00C0.02800
T2F00S00C0.03504
T3F00S00C0.03543
T4F00S00C0.04016
T5F00S00C0.04134
T6F00S00C0.04331
T7F00S00C0.05118
T8F00S00C0.06063
%
T01
X01395Y00535
X0146Y00495
X0153217Y0076283
X0148Y0087
X0136Y00875
X013Y01135
X01195Y01125
X01135Y01205
X0101Y01275
X0094Y0106
X01455Y01215
X0151Y01205
X0155Y01165
X014477Y0128963
X01445Y01355
X0149Y01465
X01545Y0145
X00675Y0147
X017725Y013475
X0191775Y0134725
X0198Y0145
X0189Y0121
X0187899Y01095
X0177276Y011928
X0172828Y012278
X0165828Y0122878
X0172Y011578
X01635Y0104
X0159611Y0100111
X0158Y0093
X01655Y00765
X0174984Y0078532
X01745Y0085
X0172532Y006908
X022Y00715
X02155Y00885
X02115Y0093
X0196Y00955
X023Y0098
X0234Y0085071
X0239Y00885
X02455Y01095
X0236Y0053
X01995Y00265
X02795Y00755
X0273Y01555
X032828Y0133752
X03385Y0132
X0162018Y017823
X01835Y0201
X013Y01795
X0141986Y0166029
X0112801Y0162447
X0153618Y025784
T02
X0321Y0196
X0331
Y0206
X0321
Y0216
X0331
Y0226
X0321
Y0236
X0331
T03
X01505Y0015
Y004
X00445Y0137
Y0147
X01605Y004
X01705
X01805
Y0015
X01705
X01605
X02195Y00155
X02295
X02395
X00445Y0157
Y0167
T04
X0235114Y0201
X0245114
Y0211
X0235114
Y0221
X0245114
Y0231
X0235114
T05
X02715Y0019
X02815
X02915
X03135Y00195
X03235
X03335
T06
X0046333Y0049834
X0046Y0063
X0087Y00805
X0275114Y0181
Y0191
Y0201
Y0211
Y0221
Y0231
Y0241
Y0251
T07
X0221484Y0108862
Y0118862
Y0128862
Y0138862
Y0148862
Y0158862
T08
X00375Y0016
X00475Y0026
X00375Y0036
X00575
Y0016
Y02425
X00475Y02525
X00375Y02625
Y02425
X00575Y02625
M30
