G04*
G04 #@! TF.GenerationSoftware,Altium Limited,Altium Designer,20.2.6 (244)*
G04*
G04 Layer_Color=8388736*
%FSLAX25Y25*%
%MOIN*%
G70*
G04*
G04 #@! TF.SameCoordinates,3B791BB4-AEC8-405A-9348-557AA33B983F*
G04*
G04*
G04 #@! TF.FilePolarity,Negative*
G04*
G01*
G75*
%ADD15R,0.04560X0.03985*%
%ADD20R,0.04449X0.09606*%
%ADD21R,0.06299X0.03937*%
%ADD23R,0.13780X0.03937*%
%ADD24R,0.04724X0.01181*%
%ADD25R,0.01181X0.04724*%
%ADD28R,0.05000X0.02992*%
%ADD31R,0.03400X0.03788*%
%ADD33R,0.03788X0.03400*%
%ADD34R,0.01322X0.04583*%
G04:AMPARAMS|DCode=35|XSize=45.83mil|YSize=13.22mil|CornerRadius=6.61mil|HoleSize=0mil|Usage=FLASHONLY|Rotation=270.000|XOffset=0mil|YOffset=0mil|HoleType=Round|Shape=RoundedRectangle|*
%AMROUNDEDRECTD35*
21,1,0.04583,0.00000,0,0,270.0*
21,1,0.03260,0.01322,0,0,270.0*
1,1,0.01322,0.00000,-0.01630*
1,1,0.01322,0.00000,0.01630*
1,1,0.01322,0.00000,0.01630*
1,1,0.01322,0.00000,-0.01630*
%
%ADD35ROUNDEDRECTD35*%
%ADD38R,0.04724X0.06299*%
%ADD39R,0.12992X0.06299*%
%ADD40R,0.03740X0.05512*%
%ADD45R,0.08661X0.03150*%
%ADD46R,0.08661X0.03150*%
%ADD47R,0.05131X0.05721*%
%ADD48R,0.05721X0.05131*%
%ADD49R,0.04934X0.04343*%
%ADD50R,0.04540X0.03950*%
%ADD51R,0.04540X0.04147*%
%ADD52R,0.05918X0.08280*%
%ADD53R,0.04147X0.03753*%
%ADD54R,0.03950X0.03950*%
%ADD55R,0.03359X0.07690*%
%ADD56R,0.05131X0.03359*%
%ADD57R,0.03162X0.03950*%
%ADD58R,0.04147X0.04540*%
%ADD59R,0.04147X0.04343*%
%ADD60R,0.04343X0.04934*%
%ADD61R,0.04737X0.04934*%
%ADD62R,0.02847X0.02729*%
%ADD63R,0.03950X0.03162*%
%ADD64R,0.06706X0.06706*%
%ADD65C,0.06706*%
%ADD66C,0.07099*%
%ADD67R,0.06706X0.06706*%
%ADD68R,0.08871X0.08871*%
%ADD69C,0.08871*%
%ADD70C,0.07887*%
%ADD71R,0.07887X0.07887*%
%ADD72C,0.06902*%
%ADD73R,0.06902X0.06902*%
%ADD74C,0.05472*%
%ADD75R,0.05472X0.05472*%
%ADD76R,0.07099X0.07099*%
%ADD77C,0.06181*%
%ADD78R,0.06181X0.06181*%
%ADD79C,0.05800*%
D15*
X168728Y91362D02*
D03*
X175240D02*
D03*
D20*
X348500Y90071D02*
D03*
X338500D02*
D03*
X328500D02*
D03*
X318500D02*
D03*
X308500D02*
D03*
Y123929D02*
D03*
X318500D02*
D03*
X328500D02*
D03*
X338500D02*
D03*
X348500D02*
D03*
X290000D02*
D03*
X280000D02*
D03*
X270000D02*
D03*
X260000D02*
D03*
X250000D02*
D03*
Y90071D02*
D03*
X260000D02*
D03*
X270000D02*
D03*
X280000D02*
D03*
X290000D02*
D03*
D21*
X58945Y69890D02*
D03*
Y56110D02*
D03*
X68000Y63000D02*
D03*
D23*
X135512Y202441D02*
D03*
Y210315D02*
D03*
Y218189D02*
D03*
Y226063D02*
D03*
Y233937D02*
D03*
Y241811D02*
D03*
Y249685D02*
D03*
Y257559D02*
D03*
X74488D02*
D03*
Y249685D02*
D03*
Y241811D02*
D03*
Y233937D02*
D03*
Y226063D02*
D03*
Y218189D02*
D03*
Y210315D02*
D03*
Y202441D02*
D03*
D24*
X137362Y147764D02*
D03*
Y145795D02*
D03*
Y143827D02*
D03*
Y141858D02*
D03*
Y139890D02*
D03*
Y137921D02*
D03*
Y135953D02*
D03*
Y133984D02*
D03*
Y132016D02*
D03*
Y130047D02*
D03*
Y128079D02*
D03*
Y126110D02*
D03*
Y124142D02*
D03*
Y122173D02*
D03*
Y120205D02*
D03*
Y118236D02*
D03*
X182638D02*
D03*
Y120205D02*
D03*
Y122173D02*
D03*
Y124142D02*
D03*
Y126110D02*
D03*
Y128079D02*
D03*
Y130047D02*
D03*
Y132016D02*
D03*
Y133984D02*
D03*
Y135953D02*
D03*
Y137921D02*
D03*
Y139890D02*
D03*
Y141858D02*
D03*
Y143827D02*
D03*
Y145795D02*
D03*
Y147764D02*
D03*
D25*
X145236Y110362D02*
D03*
X147205D02*
D03*
X149173D02*
D03*
X151142D02*
D03*
X153110D02*
D03*
X155079D02*
D03*
X157047D02*
D03*
X159016D02*
D03*
X160984D02*
D03*
X162953D02*
D03*
X164921D02*
D03*
X166890D02*
D03*
X168858D02*
D03*
X170827D02*
D03*
X172795D02*
D03*
X174764D02*
D03*
Y155638D02*
D03*
X172795D02*
D03*
X170827D02*
D03*
X168858D02*
D03*
X166890D02*
D03*
X164921D02*
D03*
X162953D02*
D03*
X160984D02*
D03*
X159016D02*
D03*
X157047D02*
D03*
X155079D02*
D03*
X153110D02*
D03*
X151142D02*
D03*
X149173D02*
D03*
X147205D02*
D03*
X145236D02*
D03*
D28*
X183441Y62000D02*
D03*
Y67000D02*
D03*
X153559D02*
D03*
Y62000D02*
D03*
D31*
X236128Y41500D02*
D03*
X241872D02*
D03*
D33*
X210500Y60628D02*
D03*
Y66372D02*
D03*
D34*
X242059Y33532D02*
D03*
D35*
X236941D02*
D03*
X239500Y27468D02*
D03*
D38*
X184445Y199902D02*
D03*
X193500D02*
D03*
X202555D02*
D03*
D39*
X193500Y225098D02*
D03*
D40*
X100815Y112862D02*
D03*
X117154D02*
D03*
D45*
X83591Y11441D02*
D03*
X83591Y15772D02*
D03*
X83591Y20102D02*
D03*
X132410Y11441D02*
D03*
X132409Y15772D02*
D03*
X132410Y20102D02*
D03*
X132409Y66559D02*
D03*
X132410Y62228D02*
D03*
X132409Y57898D02*
D03*
X132410Y40575D02*
D03*
X83591Y66559D02*
D03*
X83591Y62228D02*
D03*
X83591Y57898D02*
D03*
X83591Y40575D02*
D03*
D46*
X83591Y24433D02*
D03*
X83590Y28764D02*
D03*
X132409Y24433D02*
D03*
X132409Y28764D02*
D03*
X132409Y53567D02*
D03*
X132409Y49236D02*
D03*
X132409Y44905D02*
D03*
X83591Y53567D02*
D03*
X83590Y49236D02*
D03*
X83591Y44905D02*
D03*
D47*
X192984Y144516D02*
D03*
Y151209D02*
D03*
X121484Y160209D02*
D03*
Y153516D02*
D03*
X149000Y252847D02*
D03*
Y246153D02*
D03*
X125484Y120516D02*
D03*
Y127209D02*
D03*
X74878Y35906D02*
D03*
Y29214D02*
D03*
D48*
X139460Y94085D02*
D03*
X146153D02*
D03*
X135638Y167862D02*
D03*
X142331D02*
D03*
X105291Y99362D02*
D03*
X111984D02*
D03*
D49*
X158000Y170146D02*
D03*
Y175854D02*
D03*
D50*
X149984Y174921D02*
D03*
Y169803D02*
D03*
D51*
X129484Y153705D02*
D03*
Y159020D02*
D03*
X203024Y191429D02*
D03*
Y186115D02*
D03*
D52*
X105811Y134063D02*
D03*
Y146661D02*
D03*
X84158Y134063D02*
D03*
Y146661D02*
D03*
D53*
X115484Y128862D02*
D03*
Y133783D02*
D03*
Y147402D02*
D03*
Y152323D02*
D03*
D54*
X158547Y164000D02*
D03*
X164452D02*
D03*
X104453Y78500D02*
D03*
X98548D02*
D03*
D55*
X206000Y28976D02*
D03*
X211000D02*
D03*
X216000D02*
D03*
X221000D02*
D03*
X206000Y51024D02*
D03*
X211000D02*
D03*
X216000D02*
D03*
X221000D02*
D03*
D56*
X192276Y59260D02*
D03*
Y66740D02*
D03*
X201724D02*
D03*
Y63000D02*
D03*
Y59260D02*
D03*
D57*
X241559Y49000D02*
D03*
X236441D02*
D03*
D58*
X222657Y66000D02*
D03*
X217342D02*
D03*
X186367Y190772D02*
D03*
X191682D02*
D03*
D59*
X221362Y59000D02*
D03*
X216638D02*
D03*
D60*
X99146Y86500D02*
D03*
X104854D02*
D03*
D61*
X67378Y22607D02*
D03*
Y28513D02*
D03*
D62*
X70378Y17749D02*
D03*
Y14560D02*
D03*
D63*
X74878Y23619D02*
D03*
Y18501D02*
D03*
D64*
X150500Y40000D02*
D03*
X219500Y15500D02*
D03*
X150500Y15000D02*
D03*
D65*
X160500Y40000D02*
D03*
X170500D02*
D03*
X180500D02*
D03*
X44500Y147000D02*
D03*
Y157000D02*
D03*
Y167000D02*
D03*
X239500Y15500D02*
D03*
X229500D02*
D03*
X180500Y15000D02*
D03*
X170500D02*
D03*
X160500D02*
D03*
D66*
X46000Y63000D02*
D03*
X46333Y49834D02*
D03*
X87000Y80500D02*
D03*
X275114Y181000D02*
D03*
Y191000D02*
D03*
Y211000D02*
D03*
Y231000D02*
D03*
Y241000D02*
D03*
Y221000D02*
D03*
Y201000D02*
D03*
D67*
X44500Y137000D02*
D03*
D68*
X47500Y252500D02*
D03*
Y26000D02*
D03*
D69*
X37500Y262500D02*
D03*
Y242500D02*
D03*
X57500D02*
D03*
Y262500D02*
D03*
X37500Y36000D02*
D03*
Y16000D02*
D03*
X57500D02*
D03*
Y36000D02*
D03*
D70*
X221484Y138862D02*
D03*
Y148862D02*
D03*
Y128862D02*
D03*
Y118862D02*
D03*
Y108862D02*
D03*
D71*
Y158862D02*
D03*
D72*
X333500Y19500D02*
D03*
X323500D02*
D03*
X291500Y19000D02*
D03*
X281500D02*
D03*
D73*
X313500Y19500D02*
D03*
X271500Y19000D02*
D03*
D74*
X321000Y196000D02*
D03*
X331000D02*
D03*
X321000Y206000D02*
D03*
X331000D02*
D03*
X321000Y216000D02*
D03*
X331000D02*
D03*
X321000Y226000D02*
D03*
X331000D02*
D03*
X321000Y236000D02*
D03*
D75*
X331000D02*
D03*
D76*
X275114Y251000D02*
D03*
D77*
X235114Y201000D02*
D03*
X245114D02*
D03*
X235114Y211000D02*
D03*
X245114D02*
D03*
X235114Y221000D02*
D03*
X245114D02*
D03*
X235114Y231000D02*
D03*
D78*
X245114D02*
D03*
D79*
X279500Y75500D02*
D03*
X220000Y71500D02*
D03*
X172532Y69080D02*
D03*
X101000Y127500D02*
D03*
X113500Y120500D02*
D03*
X153618Y257840D02*
D03*
X130000Y179500D02*
D03*
X141986Y166029D02*
D03*
X165500Y76500D02*
D03*
X153217Y76283D02*
D03*
X148000Y87000D02*
D03*
X198000Y145000D02*
D03*
X174984Y78532D02*
D03*
X136000Y87500D02*
D03*
X94000Y106000D02*
D03*
X112801Y162447D02*
D03*
X162018Y178230D02*
D03*
X183500Y201000D02*
D03*
X273000Y155500D02*
D03*
X230000Y98000D02*
D03*
X239000Y88500D02*
D03*
X234000Y85071D02*
D03*
X211500Y93000D02*
D03*
X215500Y88500D02*
D03*
X196000Y95500D02*
D03*
X158000Y93000D02*
D03*
X163500Y104000D02*
D03*
X159611Y100111D02*
D03*
X236000Y53000D02*
D03*
X245500Y109500D02*
D03*
X172000Y115780D02*
D03*
X172828Y122780D02*
D03*
X177276Y119280D02*
D03*
X165828Y122878D02*
D03*
X177250Y134750D02*
D03*
X189000Y121000D02*
D03*
X187899Y109500D02*
D03*
X191775Y134725D02*
D03*
X154500Y145000D02*
D03*
X67500Y147000D02*
D03*
X149000Y146500D02*
D03*
X174500Y85000D02*
D03*
X145500Y121500D02*
D03*
X151000Y120500D02*
D03*
X144770Y128963D02*
D03*
X155000Y116500D02*
D03*
X199500Y26500D02*
D03*
X139500Y53500D02*
D03*
X130000Y113500D02*
D03*
X328280Y133752D02*
D03*
X338500Y132000D02*
D03*
X146000Y49500D02*
D03*
X119500Y112500D02*
D03*
X144500Y135500D02*
D03*
M02*
